<?xml version="1.0" encoding="UTF-8"?>
<!DOCTYPE svg PUBLIC "-//W3C//DTD SVG 1.1//EN" "http://www.w3.org/Graphics/SVG/1.1/DTD/svg11.dtd">
<!-- Creator: CorelDRAW 2020 (64-Bit) -->
<svg xmlns="http://www.w3.org/2000/svg" xml:space="preserve" width="35.5834mm" height="49.7291mm" version="1.1" style="shape-rendering:geometricPrecision; text-rendering:geometricPrecision; image-rendering:optimizeQuality; fill-rule:evenodd; clip-rule:evenodd"
viewBox="0 0 512.12 715.7"
 xmlns:xlink="http://www.w3.org/1999/xlink"
 xmlns:xodm="http://www.corel.com/coreldraw/odm/2003">
 <defs>
  <style type="text/css">
   <![CDATA[
    .fil0 {fill:#FEFEFE;fill-rule:nonzero}
    .fil1 {fill:#FEFEFE;fill-rule:nonzero}
    .fil2 {fill:#E32124;fill-rule:nonzero}
   ]]>
  </style>
 </defs>
 <g id="Layer_x0020_1">
  <metadata id="CorelCorpID_0Corel-Layer"/>
  <g id="_3133660425120">
   <path class="fil0" d="M363.59 16.37c0.74,-5.55 2.19,-13.59 8.95,-14.75 6.26,-1.08 10.95,3.56 14.6,8.37 -1.34,-3.41 -3.71,-6.4 -6.99,-8.26 -3.44,-1.95 -7.59,-2.43 -11.16,-0.47 -3.38,1.86 -6.62,4.99 -6.99,8.98 -0.58,6.17 0.07,12.54 0.89,18.8 0.02,-4.24 0.15,-8.48 0.71,-12.67z"/>
   <path class="fil1" d="M182.45 160.53c-0.09,0.22 -0.16,0.44 -0.27,0.65l-0.04 0.04c0.58,-0.42 0.75,-1.17 0.42,-1.82l0.09 0.29c-0.09,0.27 -0.16,0.55 -0.19,0.83z"/>
   <path class="fil1" d="M181.66 162.37c-0.56,1.17 -1.15,2.33 -1.82,3.46 -0.15,0.26 -0.24,0.52 -0.31,0.77l0.09 -0.18 0.09 -0.11c0.16,-0.1 0.31,-0.22 0.47,-0.31 0.62,-0.36 0.77,-0.95 0.63,-1.48 0.53,-0.99 0.96,-2.05 1.3,-3.18l-0.14 0.26c-0.15,0.25 -0.24,0.51 -0.3,0.77z"/>
   <path class="fil1" d="M179.5 166.66c-0.22,0.5 -0.46,0.99 -0.72,1.47 0.26,-0.48 0.49,-0.97 0.72,-1.47z"/>
   <path class="fil1" d="M173.01 352.37c0.51,0.09 0.98,0.25 1.35,0.53 0.09,-0.49 0.18,-0.99 0.28,-1.48 -0.63,0.22 -1.28,0.36 -1.95,0.41 0.12,0.17 0.23,0.35 0.32,0.54z"/>
   <path class="fil1" d="M152.29 186.57c2.15,5.59 4.89,11.3 8.1,16.87 -4.08,-11.78 -8.23,-23.56 -12.02,-35.45 -0.02,6.31 1.66,12.69 3.93,18.58z"/>
   <path class="fil1" d="M160.39 203.44c-3.21,-5.58 -5.94,-11.28 -8.1,-16.87 -2.25,-5.84 -3.92,-12.17 -3.93,-18.43 0,-0.05 0,-0.1 0,-0.15 3.79,11.89 7.94,23.67 12.02,35.45z"/>
   <path class="fil1" d="M171.06 175.62c-0.37,0.13 -0.75,0.22 -1.16,0.28 -4.27,0.53 -7.32,-3.14 -9.39,-6.61 -1.76,-1.9 -2.96,-4.11 -3.14,-7.32 -0.04,-0.68 0.47,-1.13 1.03,-1.36 4.12,-1.69 8.4,-2.92 12.77,-3.54 0.31,-0.16 0.67,-0.22 1.03,-0.15 3.01,-0.36 6.06,-0.42 9.13,-0.12 1,0.1 1.49,0.82 1.36,1.78 -0.04,0.28 -0.1,0.56 -0.15,0.83 0.33,0.64 0.17,1.4 -0.42,1.82l-0.04 0.11 -0 0c-0.33,1.13 -0.77,2.19 -1.3,3.18 0.14,0.53 -0.01,1.13 -0.63,1.48 -0.16,0.09 -0.31,0.21 -0.47,0.31l-0.09 0.11 -0.09 0.18 -0 0 -0.03 0.05c-0.22,0.5 -0.46,0.99 -0.72,1.47 -0.27,0.51 -0.57,1.01 -0.91,1.48 -1.02,1.42 -2.23,2.5 -3.6,3.41 -0.23,0.34 -0.49,0.65 -0.76,0.94 3.11,10.39 6.47,20.79 11.04,30.63 2.46,5.29 5.11,10.65 8.62,15.34 1.52,2.02 4.44,6.9 6.8,1.67 0.98,-2.18 0.65,-4.7 0.62,-7 -0.02,-1.82 2.8,-1.82 2.82,0 0.08,6.2 -0.4,9.63 -6.34,12.49 -0.57,0.27 -1.25,0.26 -1.71,-0.22 -1.08,-1.13 -2.09,-2.31 -3.08,-3.52 -0.88,1.85 -2.21,3.69 -4.24,4.01 -2.85,0.44 -5.03,-1.21 -6.78,-3.3 -1.16,-1.38 0.83,-3.39 1.99,-1.99 0.84,1.01 2.46,3 4.03,2.57 1.7,-0.46 2.47,-2.32 3.01,-3.83l0 -0.01c-9.57,-13.02 -14.73,-29.77 -19.26,-45.17zm5.9 54.11c1.15,0.6 2.28,1.25 3.4,1.92 0.15,0.24 0.3,0.47 0.46,0.7 1.92,6.98 5.88,12.94 13.92,13.97 6.25,0.8 11.83,-2.82 16.22,-7.53 2.09,-0.56 4.17,-2.76 4.55,-4.82 0.08,-0.44 0.15,-0.88 0.22,-1.32 0.76,-1.15 1.44,-2.29 2.05,-3.37 4.76,-8.55 7.11,-18.47 6.62,-28.25 2.2,-25.91 -9.3,-52.53 -36.37,-60.31 -2.7,-0.78 -4.92,-0.02 -6.45,1.48 -2.05,-0.46 -4.21,-0.72 -6.52,-0.69 -10.06,0.12 -20.28,5.46 -24.39,14.92 -0.7,1.61 -1.21,3.25 -1.58,4.91 2.55,7.94 5.19,15.54 7.58,22.57 3.5,10.3 7.22,20.59 10.74,30.94 1.9,2.75 3.96,5.38 6.18,7.85 -0.59,2.59 0.25,5.4 3.36,7.02z"/>
   <path class="fil1" d="M196.48 246.44c-0.58,0 -1.16,-0.04 -1.75,-0.11l0 0c-8.04,-1.03 -12,-6.99 -13.92,-13.97 -0.15,-0.23 -0.31,-0.46 -0.46,-0.7 -1.12,-0.67 -2.25,-1.32 -3.4,-1.92 -2.5,-1.31 -3.54,-3.37 -3.54,-5.48 0,-0.51 0.06,-1.03 0.18,-1.53l0 0c-2.23,-2.47 -4.29,-5.1 -6.18,-7.85l0 0c-3.52,-10.35 -7.23,-20.64 -10.74,-30.94 -2.39,-7.04 -5.02,-14.63 -7.58,-22.57 0.37,-1.66 0.88,-3.3 1.58,-4.91 4.11,-9.46 14.33,-14.8 24.39,-14.92 0.12,-0 0.23,-0 0.34,-0 2.18,0 4.23,0.26 6.18,0.69 1.11,-1.09 2.59,-1.79 4.35,-1.79 0.66,0 1.36,0.1 2.09,0.31 24.9,7.16 36.63,30.26 36.64,54.08 0,2.07 -0.09,4.15 -0.26,6.23l0 0c0.04,0.84 0.06,1.68 0.06,2.52 0,8.95 -2.33,17.91 -6.69,25.73 -0.61,1.09 -1.3,2.22 -2.05,3.37 -0.08,0.44 -0.14,0.88 -0.22,1.32 -0.39,2.06 -2.46,4.26 -4.55,4.82 -0.01,0.02 -0.03,0.03 -0.04,0.04 -0.04,0.04 -0.08,0.08 -0.12,0.12 -0.01,0.01 -0.01,0.01 -0.01,0.02 -0.02,0.02 -0.04,0.04 -0.05,0.06 -3.94,4.15 -8.8,7.4 -14.24,7.4 -0,0 -0.01,0 -0.01,0zm-15.55 -23.32c-0,0.31 0.1,0.64 0.35,0.93 1.55,1.86 3.45,3.37 5.85,3.37 0.3,0 0.61,-0.02 0.92,-0.07 2.03,-0.32 3.36,-2.16 4.24,-4.01 0.98,1.21 2,2.39 3.08,3.52 0.27,0.28 0.61,0.4 0.96,0.4 0.25,0 0.51,-0.06 0.75,-0.18 5.61,-2.71 6.35,-5.92 6.34,-11.5 -0,-0.32 -0,-0.65 -0.01,-0.99 -0.01,-0.91 -0.72,-1.36 -1.43,-1.36 -0.7,0 -1.39,0.45 -1.39,1.34 0,0.01 0,0.01 0,0.02 0.01,0.96 0.08,1.96 0.08,2.96 0,1.39 -0.13,2.77 -0.7,4.04 -0.77,1.71 -1.6,2.34 -2.43,2.34 -1.69,0 -3.35,-2.65 -4.37,-4.01 -3.52,-4.69 -6.16,-10.04 -8.62,-15.34 -4.57,-9.83 -7.93,-20.24 -11.04,-30.63 0.27,-0.29 0.53,-0.61 0.76,-0.94 1.37,-0.91 2.58,-2 3.6,-3.41 0.34,-0.47 0.63,-0.96 0.91,-1.48 0.26,-0.48 0.49,-0.97 0.72,-1.47l0.03 -0.05 0 -0 0.09 -0.18 0.09 -0.11c0.16,-0.1 0.31,-0.22 0.47,-0.31 0.48,-0.28 0.68,-0.7 0.68,-1.12l0 0c0,-0.12 -0.02,-0.25 -0.05,-0.37 0.53,-0.99 0.96,-2.05 1.3,-3.18l0 -0 0.04 -0.11c0.38,-0.27 0.59,-0.69 0.59,-1.13l0 0c0,-0.23 -0.06,-0.46 -0.17,-0.69 0.05,-0.27 0.11,-0.55 0.15,-0.83 0.01,-0.11 0.02,-0.21 0.02,-0.31 -0,-0.81 -0.49,-1.39 -1.38,-1.47 -1.32,-0.13 -2.64,-0.2 -3.96,-0.2 -1.73,0 -3.46,0.11 -5.17,0.32 -0.1,-0.02 -0.2,-0.03 -0.3,-0.03 -0.26,0 -0.51,0.06 -0.73,0.18 -4.37,0.62 -8.65,1.85 -12.77,3.54 -0.55,0.22 -1.04,0.65 -1.04,1.3 0,0.02 0,0.04 0,0.06 0.18,3.21 1.38,5.42 3.14,7.32 1.93,3.24 4.72,6.66 8.56,6.66 0.27,0 0.54,-0.02 0.82,-0.05 0.41,-0.05 0.79,-0.15 1.16,-0.28 4.53,15.41 9.69,32.15 19.26,45.17l-0 0.01c-0.54,1.51 -1.31,3.37 -3.01,3.83 -0.15,0.04 -0.3,0.06 -0.45,0.06 -1.42,0 -2.82,-1.72 -3.59,-2.63 -0.28,-0.34 -0.6,-0.47 -0.92,-0.47 -0.73,0 -1.42,0.73 -1.42,1.53z"/>
   <path class="fil1" d="M377.04 365.23c0.72,-0.93 1.42,-1.87 2.13,-2.8 -0.9,0.72 -1.64,1.65 -2.13,2.8z"/>
   <path class="fil1" d="M377.04 365.23c0.49,-1.15 1.22,-2.09 2.13,-2.8 -0.71,0.93 -1.41,1.88 -2.13,2.8z"/>
   <path class="fil1" d="M79.46 678.68c-0.66,-0.32 -1.31,-0.64 -1.96,-0.97 0.57,0.42 1.22,0.76 1.96,0.97z"/>
   <path class="fil1" d="M79.46 678.68c-0.75,-0.22 -1.4,-0.55 -1.96,-0.97 0.65,0.33 1.31,0.65 1.96,0.97z"/>
   <path class="fil1" d="M199.86 127.42c-1.13,1.86 -2.7,4.14 -5.2,3.72 -2.34,-0.39 -4.22,-2.9 -5.53,-4.66 -1.07,-1.44 -3.52,-0.04 -2.43,1.42 1.91,2.59 4.6,5.95 8.15,6.1 3.49,0.15 5.76,-2.39 7.44,-5.16 0.95,-1.56 -1.49,-2.98 -2.43,-1.42z"/>
   <path class="fil1" d="M150.79 134.71c-0,1.87 -0.19,3.63 -0.67,5.41 -0.41,0.07 -0.76,0.04 -1.02,-0.4 -0.46,-0.81 -0.9,-1.56 -1.54,-2.25 -1.25,-1.33 -3.24,0.67 -1.99,1.99 0.69,0.73 0.98,1.71 1.65,2.47 0.83,0.94 2.02,1.1 3.2,0.94 0.74,-0.1 1.64,-0.16 2.06,-0.88 0.43,-0.74 0.58,-1.78 0.75,-2.6 0.33,-1.54 0.38,-3.12 0.38,-4.68 0,-1.82 -2.82,-1.82 -2.82,0z"/>
   <path class="fil1" d="M128.43 373.65c-0.49,1.1 -1.63,4.02 -3.27,3.79 -1.89,-0.27 -3.04,-3.26 -3.7,-4.73 -0.74,-1.66 -3.17,-0.22 -2.43,1.42 1.08,2.41 2.76,5.65 5.7,6.07 3.13,0.45 5.04,-2.69 6.13,-5.13 0.74,-1.65 -1.69,-3.08 -2.43,-1.42z"/>
   <path class="fil1" d="M149.62 405.1c-1.32,-1.91 -2.28,-4.02 -3.3,-6.14 1.23,-1.51 2.6,-2.04 4.46,-1.81 -0.08,2.7 -0.55,5.33 -1.16,7.95zm2.95 -10.48c-1.73,-0.41 -3.51,-0.62 -5.21,0 -1.71,0.62 -2.9,2.01 -3.9,3.47 -0.37,0.55 -0.29,1.08 0.02,1.46 1.69,3.44 3.15,6.84 5.84,9.64 0.73,0.76 2.1,0.4 2.36,-0.62 0.96,-3.84 1.86,-7.68 1.93,-11.65 0.01,-0.22 -0.04,-0.41 -0.11,-0.58 0.22,-0.69 -0.02,-1.51 -0.93,-1.72z"/>
   <path class="fil1" d="M292.1 50.14c-0.25,-9.1 -5.04,-19.12 -13.79,-22.98 -8.75,-3.86 -15.34,0.84 -18.78,8.45 -0.12,0 -0.24,0.04 -0.36,0.08 -0.2,0.46 -0.39,0.92 -0.6,1.37 -0.1,0.3 -0.19,0.6 -0.27,0.91l-0 0.01c0.06,0.12 0.11,0.24 0.16,0.37l-0.02 0.05c-0.03,0.11 -0.03,0.2 -0.04,0.3 0.21,0.4 0.39,0.8 0.56,1.22l0.28 0.17c6.01,11.94 19.52,15.97 32.09,11.2 0.41,-0.16 0.79,-0.72 0.78,-1.16z"/>
   <path class="fil1" d="M492.41 608.84c-1.33,-0.17 -1.72,1.6 -1,2.41 4.05,4.57 1.71,9.64 -3,12.47 -6.39,3.84 -12.35,-0.73 -15.3,-6.36 2.22,-4.1 4.17,-8.3 5.93,-12.57 4.01,-9.72 6.91,-19.85 8.89,-30.25 1.43,-0.88 3.07,-1.72 4.74,-2.31 4,-1.39 8.18,-1.26 10.11,3.63 1.11,2.82 0.63,5.67 -0.94,7.55 -2.44,-0.55 -5.08,0.03 -7.62,2.35 -0.75,0.69 -0.41,2.15 0.62,2.35 3.03,0.6 5.76,-0.06 7.79,-1.58 3.26,1.69 5.7,6.52 6.47,9.96 2.39,10.85 -8.24,13.41 -16.71,12.35zm-21.98 7.23c-1.2,2.27 -2.45,4.53 -3.79,6.76 -0.91,1.51 -1.86,2.97 -2.82,4.41 -6.84,10.24 -14.97,18.95 -24.1,26.35 -5.59,4.53 -11.54,8.57 -17.8,12.17 -20.3,11.68 -43.72,18.74 -67.75,22.98 -1.08,0.19 -2.17,0.37 -3.25,0.55 -18.22,3.01 -36.73,4.46 -54.45,5.1 -2.3,0.08 -4.58,0.16 -6.84,0.22 -4.84,0.13 -9.6,0.2 -14.28,0.24 -33.14,0.27 -66.21,-2.1 -99.33,-2.29 -13.15,-0.08 -26.5,-0.45 -39.68,-1.81 -9.81,-1.02 -19.54,-2.59 -29.03,-5.01 -11.23,-2.86 -22.12,-6.92 -32.45,-12.63l-0.01 -0c-0.26,-0.1 -0.52,-0.25 -0.76,-0.42 -0.15,-0.08 -0.3,-0.16 -0.45,-0.25l-0.01 -0.11c-0.75,-0.62 -1.49,-1.25 -2.23,-1.89 -2.62,-0.93 -4.99,-2.15 -7.07,-3.63 -0.17,-0.06 -0.33,-0.12 -0.49,-0.21 -1.02,-0.56 -1.91,-1.42 -2.54,-2.41l-0.23 -0.06c-1.57,-1.54 -2.91,-3.25 -4.04,-5.1 -3.49,-5.7 -4.86,-12.73 -3.92,-20.1 0.05,-0.38 0.09,-0.75 0.15,-1.13 1.81,-11.42 11.14,-23.63 23.05,-15.07 1.48,1.07 2.88,-1.38 1.42,-2.43 -4.93,-3.55 -9.58,-4.01 -13.61,-2.54 -1.63,-5.59 -0.97,-11.58 4.07,-15.23 5.43,-3.93 12.1,-1.21 16.29,3.06 1.28,1.3 3.27,-0.69 1.99,-1.99 -3.1,-3.16 -6.91,-5.23 -10.93,-5.6 -0.39,-5.86 -0.31,-12.9 5.34,-16.17 2.23,-1.29 4.98,-1.51 7.74,-1.27 0.22,0.1 0.46,0.14 0.71,0.08 2.55,0.3 5.09,0.94 7.22,1.47 13,3.23 24.92,6.67 38.5,7.33 1.64,0.08 3.29,0.11 4.94,0.15 4.39,0.11 8.78,0.1 13.19,-0.01 14.14,-0.35 28.33,-1.58 42.38,-2.24 21.28,-1 42.56,-2.05 63.78,-3.88 1.8,-0.16 1.81,-2.97 0,-2.82 -3.99,0.35 -7.98,0.65 -11.97,0.95l0.13 -0.12c2.72,-3.98 6.35,-6.95 10.32,-9.62 0.75,-0.5 0.05,-1.72 -0.71,-1.22 -4.18,2.81 -7.96,5.94 -10.83,10.12 -0.25,0.37 -0.09,0.72 0.2,0.9 -18.75,1.37 -37.53,2.24 -56.3,3.13 -4.18,0.2 -8.36,0.44 -12.56,0.7 -3.95,0.24 -7.91,0.48 -11.88,0.69 -4.04,0.22 -8.07,0.41 -12.11,0.53 -1.64,0.05 -3.29,0.09 -4.93,0.11 -9.61,-34.63 -8.14,-69.29 -2.21,-103.78 0.3,-0.1 0.61,-0.21 0.91,-0.31 0.44,-0.15 0.88,-0.31 1.33,-0.46 0.83,-0.28 1.66,-0.57 2.49,-0.86 5.54,-1.9 11.09,-3.8 16.62,-5.72 4.77,-1.66 9.53,-3.35 14.3,-5.03 2.09,-0.74 4.18,-1.46 6.27,-2.21 0.08,3.79 1.11,8.08 4.9,9.49 0.4,0.15 0.8,0.26 1.2,0.35 -0.86,1.35 -1.61,2.83 -2.15,4.35 -1.08,3.05 -1.26,6.25 0.46,8.86 0.46,0.7 1.07,1.35 1.82,1.95 0.17,0.13 0.32,0.26 0.49,0.39 1.5,1.04 3.12,1.5 4.78,1.55 4.68,35.2 60.29,-6.73 72.22,-15.63 10.33,-7.71 19.74,-15.76 28.71,-24.61 3.25,-3.21 6.44,-6.51 9.6,-9.95 5.56,-6.05 11.17,-12.06 16.78,-18.07 16.5,-17.67 33,-35.34 48.07,-54.23 4.52,0.31 8.9,-0.9 12.36,-4.13 0.67,-0.62 -0.33,-1.62 -1,-1 -2.91,2.71 -6.53,3.87 -10.3,3.8 2.84,-3.59 5.63,-7.22 8.36,-10.9 0.84,-1.14 -0.11,-2.24 -1.22,-2.4 -0.6,-0.08 -1.24,0.1 -1.68,0.7 -0.86,1.17 -1.75,2.32 -2.63,3.47 -0.71,0.93 -1.41,1.88 -2.13,2.8 -1.53,1.97 -3.07,3.92 -4.62,5.86 -0.54,-0.04 -0.84,0.49 -0.74,0.91 -17.33,21.6 -36.5,41.66 -55.38,61.9 -11.86,12.72 -22.94,24.8 -36.48,35.65 -3.32,2.66 -12.41,9.87 -23.24,17.16 -21.28,14.33 -49.25,28.93 -53.12,9.77 -0.1,-0.49 -0.19,-1 -0.25,-1.53 4.19,-1.14 8.21,-4.32 10.66,-7.16 1.41,-1.63 -0.96,-4.02 -2.38,-2.38 -3.29,3.8 -8.34,7.72 -13.68,6.02 -6.04,-1.92 -1.61,-9.96 0.61,-12.96l0.08 -0.14c5.21,-1.01 9.82,-5.94 13.12,-9.62 1.44,-1.61 -0.93,-4 -2.38,-2.38 -3.41,3.81 -8.13,9.57 -13.91,8.77 -5.41,-0.75 -3.47,-9.8 -2.66,-12.84 2.87,-10.8 13.34,-19.51 21.06,-27.01 14.39,-13.98 27.25,-27.84 39.51,-43.73 23.75,-30.76 48.75,-63.34 57.56,-101.98 0.48,-2.11 -2.76,-3.01 -3.24,-0.9 -5.58,24.46 -18,46.33 -31.95,66.93 -14.31,21.11 -29.87,43.18 -47.74,61.41 -8.69,8.87 -18.09,16.99 -26.56,26.08 -1.62,1.73 -3.27,3.58 -4.83,5.54 -0.16,-0.19 -0.37,-0.35 -0.69,-0.43 -12.79,-3.03 -26.18,-6.6 -39.77,-9.41 6.44,-25.92 13.77,-51.69 19.17,-77.23l0.23 -0.14c0.04,-0.69 0.19,-1.36 0.45,-1.99 -0.06,-0.11 -0.13,-0.22 -0.18,-0.33 0.46,-2.24 0.94,-4.48 1.37,-6.71 0.2,-1.04 0.39,-2.1 0.58,-3.15 1.65,-8.92 3.07,-17.95 4.08,-27.04 2.38,-21.55 2.48,-43.37 -2.02,-64.55 -3.08,-14.5 -7.52,-28.69 -12.31,-42.76 -3.52,-10.35 -7.23,-20.64 -10.74,-30.94 -2.39,-7.04 -5.02,-14.63 -7.58,-22.57 -12.63,-39.31 -23.26,-87.11 7.06,-117.78 0.29,-0.29 0.57,-0.59 0.86,-0.88 5.44,-5.3 11.85,-9.78 18.83,-13.41 2.42,-1.26 4.91,-2.43 7.46,-3.48l0.05 -0.06c1.32,-1.15 2.8,-1.65 4.53,-1.69 16.07,-5.77 33.83,-7.61 49.65,-5.15 5.54,0.86 10.87,2.32 16,4.24 -4.02,4.04 -6.86,9.49 -7.78,16.28 -0.24,1.78 2.48,2.54 2.72,0.75 0.93,-6.88 3.86,-12.18 7.98,-15.92l0.02 0.01c0.32,-0.43 0.75,-0.78 1.25,-0.98l0.06 -0.07c0.31,-0.31 0.63,-0.63 0.94,-0.94 0.47,-0.47 1.06,-0.77 1.68,-0.91 8.1,-4.78 19.03,-5.02 29.01,-0.64 7.77,3.41 14.11,9.84 15.71,18.34 1.02,5.45 -0.42,10.71 -3.06,15.53l-0.02 -0.02c-0.27,0.71 -0.54,1.43 -0.79,2.15 -0.35,1.03 -1.08,1.84 -1.99,2.26 -2.96,4.11 -6.58,7.79 -9.92,10.84 -1.35,1.23 0.65,3.22 1.99,1.99 4.02,-3.67 8,-7.87 11.09,-12.55 0.15,0.17 0.3,0.33 0.44,0.5 38.65,44.2 58.9,102.28 84.89,154.09 36.66,73.08 76.23,145.05 90.79,226.47 6.17,34.52 12.23,72.68 9.62,109.23 -1.66,23.28 -6.85,45.91 -17.76,66.53zm-427.01 44.58c-3.56,-0.69 -7.1,-1.46 -10.53,-2.48 -1.2,-0.36 -2.39,-0.74 -3.57,-1.16 0.22,-0.8 0.44,-1.59 0.66,-2.38 0.41,-1.52 0.82,-3.05 1.25,-4.55 2.8,-9.88 5.84,-19.98 7.41,-30.18 2.97,2.14 6.26,4 9.82,5.57 1.74,0.77 3.52,1.49 5.41,2.1 -1.24,2.27 -2.21,4.75 -2.86,7.29 -0.15,0.59 -0.28,1.18 -0.4,1.76 -1.52,7.46 -0.53,14.82 2.54,21.08 0.94,1.92 2.06,3.73 3.38,5.42 -4.3,-0.89 -8.72,-1.61 -13.1,-2.45zm-15.6 -8.57c-0.34,1.3 -0.68,2.61 -1.04,3.92 -4,-1.69 -7.76,-3.88 -11.11,-6.91 -5.61,-5.07 -9.2,-13.19 -9.48,-20.69 -0.14,-3.85 1.11,-6.26 3.09,-7.66 0.15,-0.12 0.3,-0.22 0.47,-0.31l0.21 -0.13 0.07 -0.05 0.07 0.03c0.18,-0.06 0.37,-0.11 0.57,-0.13 0.47,-0.3 0.98,-0.52 1.55,-0.63l0.03 -0.09c3.25,-0.76 7.29,-0.13 10.85,1.1 1.72,0.59 2.46,-2.13 0.75,-2.72 -3.34,-1.16 -7.76,-2.24 -11.62,-1.65 -0.33,0.05 -0.66,0.09 -0.97,0.16 -2.61,-8.26 -1,-16.23 5.38,-20.8 0.74,-0.53 1.53,-1.03 2.4,-1.46 3.79,9.29 9.35,17.57 17.09,23.89 -1.36,9.5 -4.14,18.88 -6.68,28.11 -0.54,1.98 -1.08,3.99 -1.61,6.02zm62.32 -145.35c0.33,-0.36 0.65,-0.72 0.99,-1.07 5.08,-5.13 11.9,-8.22 18.67,-10.4 8.89,-2.87 17.75,-5.81 26.6,-8.78 2.38,-0.8 4.75,-1.63 7.13,-2.44 -5.83,33.93 -7.24,68.07 2.26,102.8 -3.22,0.01 -6.43,-0.06 -9.64,-0.19 -5.21,-0.21 -10.41,-0.6 -15.59,-1.31 -10.24,-1.41 -20.03,-6.24 -30.3,-7.3 -9.09,-21.63 -17.98,-51.89 -0.12,-71.3zm70.1 -127.3c0.46,1.42 0.83,2.89 1.55,4.21 0.34,0.63 0.84,1.2 1.32,1.73 0.7,0.77 1.56,0.84 2.55,0.96 0.47,0.06 0.88,0.02 1.26,-0.05 -4.29,17.36 -9.03,34.67 -13.39,51.98 -23.47,-4.66 -47.45,-6.79 -69.93,0.38 4.15,-22.56 7.55,-45.89 21.36,-64.89 8.79,-12.1 32.45,-36.76 43.2,-13.72l0.14 0.21c0.06,0.29 0.13,0.57 0.19,0.86l0.03 0.08 0.03 0.08c0.25,0.77 0.98,0.98 1.62,0.77 0.31,-0.06 0.59,-0.21 0.79,-0.45 0.23,-0.11 0.43,-0.31 0.57,-0.62 1.21,-2.6 2.78,-5.02 4.92,-6.67 1.55,-1.2 3.38,-1.99 5.59,-2.14 3.25,-0.22 5.96,1.45 8.08,3.75 1.11,1.22 2.07,2.6 2.84,3.99 -1.36,6.61 -2.86,13.21 -4.44,19.8 -0.34,0.14 -0.63,0.42 -0.77,0.86 -0.42,1.3 -0.44,3.04 -2.1,2.95 -1.72,-0.1 -2.3,-3.59 -2.7,-4.83 -0.56,-1.72 -3.29,-0.98 -2.72,0.75zm-84.71 -2.76c-3.07,-1.03 -3.81,-4.31 -3.71,-7.18 2.6,0.22 5.39,-0.4 7.79,-1.43 1.67,-0.71 0.23,-3.14 -1.42,-2.43 -4.12,1.76 -8.77,1.85 -11.29,-2.39 -2.13,-3.58 -0.96,-8.1 0.88,-11.68 4.9,5.62 12.86,5.99 19.63,-0.63 1.3,-1.27 -0.69,-3.27 -1.99,-1.99 -7.64,7.47 -14.99,4.48 -18.43,-4.83 -2.87,-7.74 -0.47,-14.61 4.39,-20.73 7.59,-9.56 18.66,-16.78 29.24,-22.62 24.39,-13.46 52.2,-18.89 78.98,-25.53 0.32,2.99 0.56,5.99 0.7,9.02 0.56,12.4 0.05,24.73 -1.2,37.01 -1.03,10.09 -2.57,20.14 -4.46,30.17 -0.09,0.49 -0.18,0.99 -0.28,1.48 -0.37,-0.28 -0.84,-0.44 -1.35,-0.53 -0.09,-0.19 -0.2,-0.37 -0.32,-0.54 -0.13,-0.18 -0.27,-0.34 -0.43,-0.49 -0.01,-0.3 -0.11,-0.61 -0.37,-0.89 -13.13,-14.47 -29.5,-14.58 -44.74,-8.24 -3.48,1.45 -6.91,3.23 -10.22,5.26 -3.57,2.18 -7.01,4.64 -10.25,7.27 -1.14,0.92 -2.24,1.9 -3.35,2.86 -6.49,5.58 -12.57,11.69 -18.25,18.23 -3.09,1.16 -6.32,1.92 -9.54,0.84zm70.4 -335.85c-1.34,-5.03 0.36,-10.02 3.69,-14.2 0.68,-0.85 1.43,-1.67 2.24,-2.45 8.4,-8.13 22.91,-11.84 29.91,-3.57 0.64,0.76 1.22,1.61 1.73,2.58 -0.92,0.36 -1.82,0.77 -2.73,1.16 -10.63,4.53 -20.22,10.8 -27.87,18.91 -1.21,1.28 -2.37,2.6 -3.48,3.97 -1.79,-2.1 -2.91,-4.25 -3.49,-6.4zm358.64 543.7c1.41,-2.04 2,-4.74 1.36,-7.76 -1.55,-7.28 -7.05,-8.76 -12.66,-7.47 -1.58,0.36 -3.16,0.93 -4.67,1.67 1.17,-6.89 1.95,-13.88 2.42,-20.92 2.16,-32.26 -2.29,-65.71 -7.23,-95.94 -6.36,-38.9 -16.73,-76.32 -31.51,-112.88 -14.82,-36.69 -33.08,-71.87 -51.05,-107.08 -14.99,-29.37 -28.93,-59.16 -43.14,-88.9 -12.09,-25.32 -25.19,-50.35 -41.76,-73.08 -3.87,-5.3 -7.98,-10.49 -12.35,-15.45 2.92,-5.18 4.64,-10.89 4.06,-17.07 -0.9,-9.51 -8.13,-16.81 -16.28,-20.93 -12.18,-6.16 -26.4,-5.14 -35.84,2.32 -22.59,-8.77 -47.14,-7.07 -69.78,1.16 -1.65,-3.32 -3.99,-5.63 -6.74,-7.08 -8.3,-4.36 -20.34,-0.88 -28.35,6.15 -2.82,2.47 -5.14,5.38 -6.61,8.55 -1.02,2.19 -1.64,4.5 -1.74,6.87 -0.18,4.13 1.2,8.43 4.75,12.58l0.23 0.18c-3.99,5.37 -7.23,11.38 -9.51,18.07 -7.38,21.64 -3.88,45.88 1.06,67.63 2.52,11.09 5.68,22.02 9.14,32.86 3.79,11.89 7.94,23.67 12.02,35.45 1.03,2.97 2.05,5.94 3.07,8.92 6.68,19.62 13.22,39.5 15.81,60.08l-0.18 0.01c-33.55,8.33 -69.06,15.2 -96.94,37.03 -11.06,8.66 -21.61,18.6 -18.36,33.69 0.48,2.22 1.24,4.17 2.19,5.84 -2.91,4.96 -4.23,11.07 -1.14,16.27 1.07,1.81 2.54,2.94 4.2,3.59 -0.29,3.8 0.7,7.26 3.85,9.59 2.5,1.84 5.8,1.9 8.88,1.29 -17.18,20.83 -30.66,45.33 -41.64,69.15 -15.75,34.18 -28.06,72.4 -27.59,110.42 -7.56,0.17 -14.86,2.85 -11.82,12.31 2.11,6.57 7.6,11.93 14,15.36 0.23,0.26 0.45,0.53 0.7,0.78 0.44,0.47 0.97,0.51 1.41,0.33 0.36,1.13 0.76,2.23 1.16,3.33 -9.76,4.72 -12.9,15.24 -9.38,25.94 -1.14,0.65 -2.16,1.56 -2.97,2.81 -3.81,5.89 -2.31,13.88 0.48,19.89 4.46,9.62 11.63,14.97 20,18.4 -1.23,4.41 -2.61,8.78 -4.36,12.9 -0.36,0.05 -0.7,0.25 -0.92,0.69 -2.58,5.1 -5.63,9.72 -9.65,13.81 -1.27,1.3 0.72,3.29 1.99,1.99 3.62,-3.68 6.51,-7.79 8.97,-12.27 0.15,0.01 0.3,-0.02 0.44,-0.07 0.89,4.83 1.22,9.74 2.33,14.54 0.41,1.77 3.13,1.02 2.72,-0.75 -1.06,-4.57 -1.41,-9.24 -2.21,-13.85 3.89,4.45 7.01,9.55 11.13,13.81 1.27,1.31 3.26,-0.69 1.99,-1.99 -4.66,-4.81 -8.03,-10.69 -12.69,-15.51 -0.34,-0.35 -0.72,-0.45 -1.08,-0.41 1.54,-3.85 2.75,-7.89 3.88,-11.93 9.79,3.49 20.93,4.79 31.2,7.33 2.77,2.54 6.08,4.61 9.86,6.07 0.11,0.04 0.21,0.08 0.32,0.14l0.11 0.05 0 0.01c0.36,0.2 0.65,0.5 0.89,0.83 0.15,0.1 0.31,0.19 0.45,0.33 0.22,0.22 0.44,0.44 0.67,0.66 1.76,1.01 3.54,1.97 5.33,2.88 0.65,0.33 1.31,0.65 1.96,0.97 28.22,13.68 60.08,16.17 91.26,16.63 2.61,0.04 5.21,0.06 7.8,0.08 25.42,0.15 50.79,1.5 76.19,2.02 11.4,0.24 22.81,0.31 34.22,0.04 7.59,-0.18 15.35,-0.5 23.21,-1.02 12.51,-0.82 25.23,-2.14 37.85,-4.22 3.47,-0.57 6.93,-1.21 10.38,-1.9 18.01,-3.61 35.59,-8.91 51.73,-16.65 21.8,-10.45 41,-25.32 55.08,-46.47 1.53,-2.29 2.94,-4.63 4.29,-6.99 4.05,6.56 10.8,9.62 18.34,5.94 5.8,-2.83 7.87,-9.07 5.32,-14.29 10.4,0.34 19.14,-5.01 16.49,-16.99 -0.91,-4.11 -3.62,-8.29 -7.07,-10.35z"/>
   <path class="fil1" d="M144.87 98.32c-0.65,-0.1 -0.42,-4.42 -0.42,-4.96 0,-0.91 -1.41,-0.91 -1.41,0 0,1.45 -0.05,2.94 0.18,4.37 0.12,0.76 0.37,1.81 1.28,1.95 0.89,0.14 1.27,-1.22 0.37,-1.36z"/>
   <path class="fil1" d="M152.91 93.36c0,-0.91 -1.41,-0.91 -1.41,0 0,2.1 0.14,4.07 1.03,6 0.38,0.82 1.6,0.11 1.22,-0.71 -0.78,-1.68 -0.84,-3.46 -0.84,-5.28z"/>
   <path class="fil1" d="M163.81 90.19c-0.9,1.93 -1.03,3.9 -1.04,5.99 0,0.91 1.41,0.91 1.41,0 0,-1.82 0.06,-3.6 0.84,-5.28 0.38,-0.82 -0.83,-1.54 -1.22,-0.71z"/>
   <path class="fil1" d="M175.96 87.54c-1.01,3.09 -1.84,6.31 -1.9,9.59 -0.02,0.91 1.39,0.91 1.41,0 0.06,-3.14 0.88,-6.24 1.86,-9.21 0.28,-0.87 -1.08,-1.23 -1.36,-0.37z"/>
   <path class="fil1" d="M185.43 88.31c-1.04,2.15 -1.77,4.43 -2.82,6.58 -0.4,0.81 0.82,1.53 1.22,0.71 1.04,-2.15 1.78,-4.43 2.82,-6.58 0.4,-0.81 -0.82,-1.53 -1.22,-0.71z"/>
   <path class="fil1" d="M193.89 93.01c-0.41,0.81 0.81,1.52 1.22,0.71 0.86,-1.72 1.74,-3.5 3.5,-4.45 0.8,-0.43 0.09,-1.65 -0.71,-1.22 -1.99,1.06 -3.04,3.01 -4.01,4.95z"/>
   <path class="fil1" d="M146.33 83.97c0.05,-2.6 0.8,-5.1 2.61,-7.02 0.62,-0.66 -0.37,-1.66 -1,-1 -2.07,2.19 -2.97,5.03 -3.03,8.02 -0.02,0.91 1.39,0.91 1.41,0z"/>
   <path class="fil1" d="M154.41 74.21c-1.04,2.15 -1.91,4.52 -1.98,6.94 -0.02,0.91 1.38,0.91 1.41,0 0.06,-2.15 0.85,-4.31 1.78,-6.22 0.4,-0.81 -0.82,-1.53 -1.22,-0.71z"/>
   <path class="fil1" d="M166.88 70.2c-2.76,1.95 -4.05,4.78 -4.11,8.13 -0.01,0.91 1.39,0.91 1.41,0 0.05,-2.82 1.07,-5.25 3.41,-6.91 0.74,-0.52 0.03,-1.74 -0.71,-1.22z"/>
   <path class="fil1" d="M174.06 71.75c-0.03,1.4 -0.72,2.31 -1.68,3.26 -0.64,0.64 0.35,1.64 1,1 1.22,-1.22 2.05,-2.48 2.09,-4.26 0.02,-0.91 -1.39,-0.91 -1.41,0z"/>
   <path class="fil1" d="M183.71 76.01l3.76 -3.76c0.64,-0.64 -0.35,-1.64 -1,-1l-3.76 3.76c-0.64,0.64 0.35,1.64 1,1z"/>
   <path class="fil1" d="M194.86 74.96c0.14,-0.22 0.28,-0.61 0.57,-0.63 0.9,-0.06 0.91,-1.47 0,-1.41 -1.31,0.09 -1.59,1.24 -2.38,2.09 -0.62,0.66 0.37,1.66 1,1 0.31,-0.33 0.57,-0.67 0.81,-1.05z"/>
   <path class="fil1" d="M156.4 59.97c-1.93,1.98 -3.06,4.3 -3.94,6.89 -0.29,0.86 1.07,1.23 1.36,0.38 0.8,-2.36 1.82,-4.47 3.58,-6.27 0.64,-0.65 -0.36,-1.65 -1,-1z"/>
   <path class="fil1" d="M162.98 59.03c-1.42,1.42 -2.93,3.08 -3.03,5.2 -0.04,0.91 1.37,0.9 1.41,0 0.08,-1.7 1.48,-3.07 2.61,-4.2 0.64,-0.64 -0.35,-1.64 -1,-1z"/>
   <path class="fil1" d="M176.2 59.09c0.66,-0.63 -0.34,-1.62 -1,-1 -1.14,1.09 -2.62,1.73 -3.76,2.82 -0.66,0.63 0.34,1.62 1,1 1.14,-1.09 2.62,-1.73 3.76,-2.82z"/>
   <path class="fil1" d="M183.71 59.09c0.64,-0.64 -0.35,-1.64 -1,-1 -0.93,0.93 -1.99,1.93 -2.09,3.32 -0.06,0.91 1.35,0.9 1.41,0 0.06,-0.92 1.07,-1.72 1.67,-2.32z"/>
   <path class="fil1" d="M191.44 61.41c0.02,-0.73 0.2,-2.07 1.17,-2.11 0.9,-0.04 0.91,-1.45 0,-1.41 -1.84,0.08 -2.55,1.93 -2.58,3.52 -0.02,0.91 1.39,0.91 1.41,0z"/>
   <path class="fil1" d="M168.76 46.7c-2.16,1.17 -4,3.75 -4.11,6.25 -0.04,0.91 1.37,0.91 1.41,0 0.08,-2 1.7,-4.1 3.41,-5.03 0.8,-0.43 0.09,-1.65 -0.71,-1.22z"/>
   <path class="fil1" d="M177.08 44c-1.66,1.7 -2.81,3.67 -3.87,5.78 -0.41,0.81 0.81,1.52 1.22,0.71 1,-2 2.07,-3.88 3.65,-5.5 0.63,-0.65 -0.36,-1.65 -1,-1z"/>
   <path class="fil1" d="M186.48 43.06c-0.84,0.78 -1.97,1.09 -2.82,1.88 -0.66,0.62 0.33,1.62 1,1 0.84,-0.78 1.97,-1.09 2.82,-1.88 0.67,-0.62 -0.33,-1.62 -1,-1z"/>
   <path class="fil1" d="M194.49 45.2l2.82 0c0.91,0 0.91,-1.41 0,-1.41l-2.82 0c-0.91,0 -0.91,1.41 0,1.41z"/>
   <path class="fil1" d="M183.71 36.53l3.76 -3.76c0.64,-0.64 -0.35,-1.64 -1,-1l-3.76 3.76c-0.64,0.64 0.35,1.64 1,1z"/>
   <path class="fil1" d="M191.23 36.53l2.82 -2.82c0.64,-0.64 -0.35,-1.64 -1,-1l-2.82 2.82c-0.64,0.64 0.35,1.64 1,1z"/>
   <path class="fil1" d="M204.33 33.66c-1.05,0.96 -2.68,0.89 -3.76,1.88 -0.67,0.61 0.33,1.61 1,1 1.05,-0.96 2.68,-0.9 3.76,-1.88 0.67,-0.61 -0.33,-1.61 -1,-1z"/>
   <path class="fil1" d="M202.51 26.2c0.69,-0.64 1.42,-0.73 2.32,-0.74 0.91,0 0.91,-1.41 0,-1.41 -1.29,0 -2.35,0.24 -3.32,1.15 -0.66,0.62 0.33,1.62 1,1z"/>
   <path class="fil1" d="M212.35 26.87l-2.82 0c-0.91,0 -0.91,1.41 0,1.41l2.82 0c0.91,0 0.91,-1.41 0,-1.41z"/>
   <path class="fil1" d="M224.57 21.23l-5.64 0c-0.91,0 -0.91,1.41 0,1.41l5.64 0c0.91,0 0.91,-1.41 0,-1.41z"/>
   <path class="fil1" d="M468.23 556.96c-0.54,1.69 -0.73,3.36 -0.73,5.12 0,0.91 1.41,0.91 1.41,0 0,-1.64 0.17,-3.17 0.68,-4.75 0.28,-0.87 -1.08,-1.23 -1.36,-0.38z"/>
   <path class="fil1" d="M475.93 562.27c0.66,-2.13 0.73,-4.31 0.73,-6.53 0,-0.91 -1.41,-0.91 -1.41,0 -0,2.09 -0.05,4.14 -0.68,6.16 -0.27,0.87 1.09,1.24 1.36,0.37z"/>
   <path class="fil1" d="M478.78 538.11l0 9.16c0,0.91 1.41,0.91 1.41,0l0 -9.16c0,-0.91 -1.41,-0.91 -1.41,0z"/>
   <path class="fil1" d="M475.96 545.16l0 -7.75c0,-0.91 -1.41,-0.91 -1.41,0l0 7.75c0,0.91 1.41,0.91 1.41,0z"/>
   <path class="fil1" d="M468.21 539.53l0 7.75c0,0.91 1.41,0.91 1.41,0l0 -7.75c0,-0.91 -1.41,-0.91 -1.41,0z"/>
   <path class="fil1" d="M467.5 518.38c0,-0.91 -1.41,-0.91 -1.41,0l0 5.64c0,0.91 1.41,0.91 1.41,0l0 -5.64z"/>
   <path class="fil1" d="M472.46 517.16c0.67,2.18 0.67,4.5 0,6.67 -0.27,0.87 1.1,1.24 1.36,0.37 0.74,-2.4 0.74,-5.02 0,-7.42 -0.26,-0.87 -1.63,-0.5 -1.36,0.37z"/>
   <path class="fil1" d="M478.8 515.04c0.68,2.22 0.68,4.56 0.68,6.86 0,0.91 1.41,0.91 1.41,0 0,-2.43 -0.01,-4.9 -0.73,-7.24 -0.26,-0.86 -1.63,-0.5 -1.36,0.38z"/>
   <path class="fil1" d="M464.68 504.99c0,0.91 1.41,0.91 1.41,0l0 -7.75c0,-0.91 -1.41,-0.91 -1.41,0l0 7.75z"/>
   <path class="fil1" d="M471.03 502.87c0,0.91 1.41,0.91 1.41,0 0,-2 -0.12,-3.9 -0.73,-5.82 -0.28,-0.86 -1.64,-0.49 -1.36,0.37 0.58,1.81 0.68,3.57 0.68,5.45z"/>
   <path class="fil1" d="M476.76 494.07c0.73,1.61 0.61,3.55 0.61,5.28 0,0.91 1.41,0.91 1.41,0 -0,-2.02 0.05,-4.12 -0.8,-5.99 -0.38,-0.83 -1.59,-0.11 -1.22,0.71z"/>
   <path class="fil1" d="M462.57 483.84c-0,-1.8 -0.04,-3.63 -0.8,-5.29 -0.38,-0.83 -1.59,-0.11 -1.22,0.71 0.65,1.41 0.61,3.06 0.61,4.58 0,0.91 1.41,0.91 1.41,0z"/>
   <path class="fil1" d="M468.18 473.08c-0.29,-0.86 -1.65,-0.49 -1.36,0.37 0.75,2.26 1.35,4.46 1.38,6.86 0.01,0.91 1.42,0.91 1.41,0 -0.04,-2.52 -0.64,-4.86 -1.43,-7.23z"/>
   <path class="fil1" d="M476.66 477.5c0,0.91 1.41,0.91 1.41,0 -0,-1.8 -0.04,-3.63 -0.8,-5.29 -0.38,-0.83 -1.59,-0.11 -1.22,0.71 0.65,1.41 0.61,3.06 0.61,4.58z"/>
   <path class="fil1" d="M461.16 457.06c-0,-2.33 0.04,-5.01 -1.62,-6.84 -0.61,-0.67 -1.6,0.32 -0.99,1 1.36,1.51 1.2,3.95 1.2,5.84 0,0.91 1.41,0.91 1.41,0z"/>
   <path class="fil1" d="M466.89 448.96c1.14,2.39 1.31,4.78 1.31,7.4 0,0.91 1.41,0.91 1.41,0 -0,-2.88 -0.25,-5.47 -1.51,-8.11 -0.39,-0.82 -1.61,-0.11 -1.22,0.71z"/>
   <path class="fil1" d="M472.44 452.13c0,0.91 1.41,0.91 1.41,0 -0,-1.37 0.06,-2.93 -0.91,-4.02 -0.61,-0.68 -1.6,0.32 -1,1 0.66,0.74 0.5,2.11 0.5,3.03z"/>
   <path class="fil1" d="M459.04 441.55c0.02,0.91 1.43,0.91 1.41,0 -0.05,-2.07 -0.78,-3.89 -1.43,-5.83 -0.29,-0.86 -1.65,-0.49 -1.36,0.37 0.61,1.8 1.34,3.52 1.38,5.45z"/>
   <path class="fil1" d="M462.66 434.15c0.51,1.05 0.61,2.02 0.61,3.17 0,0.91 1.41,0.91 1.41,0 -0,-1.41 -0.18,-2.6 -0.8,-3.88 -0.4,-0.82 -1.61,-0.1 -1.22,0.71z"/>
   <path class="fil1" d="M466.8 433.8c0,0.91 1.41,0.91 1.41,0 -0,-1.6 -0.11,-3.11 -0.8,-4.58 -0.38,-0.82 -1.6,-0.11 -1.22,0.71 0.57,1.23 0.61,2.54 0.61,3.87z"/>
   <path class="fil1" d="M454.82 423.23c0,0.91 1.41,0.91 1.41,0 -0,-2.39 -0.21,-4.62 -1.51,-6.7 -0.48,-0.77 -1.7,-0.06 -1.22,0.71 1.17,1.87 1.31,3.84 1.31,5.99z"/>
   <path class="fil1" d="M460.45 420.41c0,0.91 1.41,0.91 1.41,0 -0,-2.06 -0.14,-3.88 -1.62,-5.43 -0.63,-0.66 -1.62,0.34 -1,1 1.2,1.26 1.2,2.78 1.2,4.44z"/>
   <path class="fil1" d="M462.57 411.95c0,0.91 1.41,0.91 1.41,0 -0,-1.37 0.06,-2.93 -0.91,-4.02 -0.6,-0.68 -1.6,0.32 -1,1 0.66,0.74 0.5,2.11 0.5,3.03z"/>
   <path class="fil1" d="M450.59 405.61c0,0.91 1.41,0.91 1.41,0 -0,-1.76 -0.19,-3.44 -0.73,-5.12 -0.28,-0.86 -1.64,-0.49 -1.36,0.38 0.51,1.57 0.68,3.1 0.68,4.75z"/>
   <path class="fil1" d="M459.85 399.61c-0.38,0.82 0.83,1.54 1.22,0.71 0.91,-1.96 0.68,-4.18 -0.81,-5.79 -0.62,-0.67 -1.61,0.33 -1,1 1.03,1.11 1.23,2.71 0.59,4.08z"/>
   <path class="fil1" d="M446.96 389.04l-2.11 -4.23c-0.41,-0.82 -1.62,-0.1 -1.22,0.71l2.11 4.23c0.41,0.81 1.62,0.1 1.22,-0.71z"/>
   <path class="fil1" d="M452.6 384.81c-0.61,-1.23 -1.27,-2.48 -1.32,-3.88 -0.03,-0.91 -1.44,-0.91 -1.41,0 0.06,1.66 0.78,3.13 1.5,4.58 0.41,0.81 1.62,0.1 1.22,-0.71z"/>
   <path class="fil1" d="M443.56 374.78c0.28,0.86 1.64,0.49 1.36,-0.38 -0.65,-2.02 -1.02,-3.99 -2.19,-5.8 -0.49,-0.76 -1.71,-0.06 -1.22,0.71 1.1,1.71 1.43,3.57 2.04,5.47z"/>
   <path class="fil1" d="M447.06 365.43c-0.04,-1.23 -0.67,-2.31 -0.7,-3.52 -0.03,-0.91 -1.44,-0.91 -1.41,0 0.04,1.23 0.67,2.31 0.71,3.52 0.03,0.91 1.44,0.91 1.41,0z"/>
   <path class="fil1" d="M437.9 356.97c0.02,0.91 1.43,0.91 1.41,0 -0.05,-2.02 -0.94,-3.98 -2.32,-5.43 -0.63,-0.66 -1.62,0.34 -1,1 1.12,1.18 1.87,2.79 1.91,4.44z"/>
   <path class="fil1" d="M438.72 346.87c0.18,0.54 0.41,1.02 0.79,1.44 0.61,0.68 1.6,-0.32 1,-1 -0.34,-0.38 -0.46,-0.91 -0.62,-1.38 -0.18,-0.53 -0.41,-1.02 -0.79,-1.44 -0.61,-0.68 -1.6,0.32 -1,1 0.34,0.38 0.46,0.91 0.62,1.38z"/>
   <path class="fil1" d="M433.57 339.7c-0.63,-1.22 -1.49,-2.3 -2.12,-3.52 -0.41,-0.81 -1.63,-0.1 -1.22,0.71 0.63,1.22 1.49,2.31 2.11,3.53 0.42,0.81 1.63,0.1 1.22,-0.71z"/>
   <path class="fil1" d="M432.47 329.98c0.63,0.66 1.62,-0.34 1,-1 -0.81,-0.85 -1.3,-1.96 -2.11,-2.82 -0.63,-0.66 -1.62,0.34 -1,0.99 0.81,0.86 1.3,1.96 2.11,2.82z"/>
   <path class="fil1" d="M455.64 552.32c0,0.91 1.41,0.91 1.41,0l0 -6.34c0,-0.91 -1.41,-0.91 -1.41,0l0 6.34z"/>
   <path class="fil1" d="M457.05 529.07l0 -4.23c0,-0.91 -1.41,-0.91 -1.41,0l0 4.23c0,0.91 1.41,0.91 1.41,0z"/>
   <path class="fil1" d="M455.64 499.46l0 4.23c0,0.91 1.41,0.91 1.41,0l0 -4.23c0,-0.91 -1.41,-0.91 -1.41,0z"/>
   <path class="fil1" d="M454.93 488.89l0 -8.46c0,-0.91 -1.41,-0.91 -1.41,0l0 8.46c0,0.91 1.41,0.91 1.41,0z"/>
   <path class="fil1" d="M448.59 463.52l0 -2.11c0,-0.91 -1.41,-0.91 -1.41,0l0 2.11c0,0.91 1.41,0.91 1.41,0z"/>
   <path class="fil1" d="M442.24 570.16c-0.81,0.42 -0.09,1.64 0.71,1.22 1.73,-0.91 2.59,-2.51 3.9,-3.87 0.63,-0.65 -0.36,-1.65 -1,-1 -1.22,1.26 -2.01,2.8 -3.62,3.65z"/>
   <path class="fil1" d="M450.56 571.21c-0.94,0.94 -1.88,1.88 -2.82,2.82 -0.64,0.64 0.35,1.64 1,1 0.94,-0.94 1.88,-1.88 2.82,-2.82 0.64,-0.64 -0.35,-1.64 -1,-1z"/>
   <path class="fil1" d="M459.02 573.09c-2.01,2.01 -3.87,4.09 -3.97,7.08 -0.03,0.91 1.38,0.91 1.41,0 0.09,-2.58 1.83,-4.36 3.55,-6.08 0.64,-0.64 -0.35,-1.64 -0.99,-1z"/>
   <path class="fil1" d="M465.48 578.88c-0.98,1.91 -2.15,3.94 -3.65,5.5 -0.63,0.65 0.37,1.65 1,1 1.58,-1.65 2.84,-3.76 3.87,-5.78 0.41,-0.81 -0.8,-1.52 -1.22,-0.71z"/>
   <path class="fil1" d="M473.11 582.49c-1.32,1.4 -2.03,3.29 -2.08,5.2 -0.02,0.58 0.55,0.78 0.97,0.62 0.24,-0.09 0.43,-0.3 0.44,-0.62l0.03 -0.29c0.1,-1.44 0.65,-2.86 1.64,-3.91 0.62,-0.66 -0.37,-1.66 -1,-1z"/>
   <path class="fil1" d="M439.28 588.13c-2.01,2.01 -4.07,3.93 -6.43,5.53 -0.75,0.51 -0.05,1.73 0.71,1.22 2.46,-1.67 4.62,-3.65 6.72,-5.75 0.64,-0.64 -0.35,-1.64 -1,-1z"/>
   <path class="fil1" d="M442.16 600.41c1.88,-1.88 3.76,-3.76 5.64,-5.64 0.64,-0.64 -0.35,-1.64 -1,-1 -1.88,1.88 -3.76,3.76 -5.64,5.64 -0.64,0.64 0.35,1.64 1,1z"/>
   <path class="fil1" d="M457.14 592.83c-1.66,1.7 -2.96,3.7 -3.03,6.14 -0.02,0.91 1.39,0.91 1.41,0 0.06,-2.06 1.22,-3.71 2.61,-5.14 0.63,-0.65 -0.36,-1.65 -1,-1z"/>
   <path class="fil1" d="M463.6 599.55c-0.75,1.47 -1.66,2.75 -1.91,4.36 -0.04,0.23 -0.06,0.45 -0.06,0.69 -0.03,0.91 1.38,0.91 1.41,0 0.05,-1.65 1.06,-2.93 1.78,-4.34 0.08,-0.16 0.09,-0.31 0.06,-0.45 -0.11,-0.57 -0.94,-0.91 -1.28,-0.26z"/>
   <path class="fil1" d="M423.36 608.86c1.56,-1.5 3.58,-2.67 5.5,-3.65 0.81,-0.41 0.09,-1.63 -0.71,-1.21 -2.02,1.03 -4.13,2.29 -5.78,3.87 -0.66,0.63 0.34,1.62 1,1z"/>
   <path class="fil1" d="M436.6 610.58c-3.06,2.09 -5.69,4.72 -7.77,7.77 -0.51,0.75 0.71,1.46 1.22,0.71 1.94,-2.85 4.42,-5.32 7.26,-7.27 0.75,-0.51 0.04,-1.73 -0.71,-1.22z"/>
   <path class="fil1" d="M441.07 620.25l0.1 -0.06c2.46,-1.32 4.26,-3.56 5.79,-5.83 0.51,-0.75 -0.71,-1.46 -1.22,-0.71 -0.71,1.06 -1.49,2.11 -2.37,3.04 -0.88,0.93 -1.86,1.74 -3.01,2.34 -0.81,0.42 -0.09,1.64 0.71,1.22z"/>
   <path class="fil1" d="M456.09 616.47c-1,2 -2.08,3.88 -3.65,5.5 -0.63,0.65 0.36,1.65 1,1 1.66,-1.7 2.81,-3.67 3.87,-5.78 0.41,-0.81 -0.81,-1.52 -1.22,-0.71z"/>
   <path class="fil1" d="M413.82 627.77c2.23,-1.18 4.02,-3.05 5.78,-4.81 0.64,-0.64 -0.35,-1.64 -0.99,-1 -1.68,1.68 -3.37,3.47 -5.5,4.59 -0.8,0.42 -0.09,1.64 0.71,1.21z"/>
   <path class="fil1" d="M422.53 634.09c0.71,-1.38 1.61,-2.52 2.71,-3.62 0.64,-0.64 -0.36,-1.64 -1,-1 -1.17,1.17 -2.17,2.41 -2.93,3.9 -0.41,0.81 0.8,1.52 1.22,0.71z"/>
   <path class="fil1" d="M438.34 629.48c-1.09,1.14 -1.73,2.62 -2.82,3.76 -0.63,0.65 0.37,1.66 1,1 1.09,-1.14 1.73,-2.62 2.82,-3.76 0.63,-0.66 -0.37,-1.66 -1,-1z"/>
   <path class="fil1" d="M411.23 640.65c-1.63,0.84 -3.07,1.98 -4.7,2.82 -0.81,0.42 -0.1,1.63 0.71,1.22 1.63,-0.84 3.07,-1.98 4.7,-2.82 0.81,-0.42 0.1,-1.63 -0.71,-1.22z"/>
   <path class="fil1" d="M416.87 644.41c-1.99,1.07 -3.04,3.01 -4.01,4.95 -0.41,0.81 0.81,1.53 1.22,0.71 0.86,-1.72 1.74,-3.5 3.51,-4.45 0.8,-0.43 0.09,-1.65 -0.71,-1.22z"/>
   <path class="fil1" d="M427.06 645.46c-1.22,1.22 -2.05,2.48 -2.09,4.26 -0.02,0.91 1.39,0.91 1.41,0 0.03,-1.4 0.72,-2.31 1.67,-3.26 0.64,-0.64 -0.35,-1.64 -1,-1z"/>
   <path class="fil1" d="M396.55 653.24c0.91,-0.02 0.91,-1.43 0,-1.41 -0.95,0.02 -1.83,0.23 -2.56,0.86 -0.75,0.65 -0.95,1.73 -0.96,2.66 -0.02,0.91 1.39,0.91 1.41,0 0.03,-1.41 0.71,-2.09 2.12,-2.12z"/>
   <path class="fil1" d="M398.43 657.47c-1.03,0.07 -1.83,0.88 -2.82,0.94 -0.9,0.06 -0.91,1.47 0,1.41 1.03,-0.07 1.83,-0.88 2.82,-0.94 0.9,-0.06 0.91,-1.47 0,-1.41z"/>
   <path class="fil1" d="M400.31 664.99c-0.93,0.06 -1.62,0.69 -1.64,1.64 -0.02,0.91 1.39,0.91 1.41,0l0 -0.01 0.01 -0.04c0.03,-0.14 0.07,-0.17 0.22,-0.18 0.9,-0.06 0.91,-1.47 0,-1.41z"/>
   <path class="fil1" d="M384.83 662.43c0.64,-0.64 -0.35,-1.64 -1,-1 -0.6,0.61 -1.4,1.61 -2.32,1.67 -0.9,0.06 -0.91,1.47 0,1.41 1.39,-0.09 2.39,-1.16 3.32,-2.09z"/>
   <path class="fil1" d="M386.65 668.01c-0.84,0.77 -2.19,0.73 -3.26,0.73 -0.91,0 -0.91,1.41 0,1.41 1.49,-0 3.1,-0.09 4.26,-1.14 0.67,-0.61 -0.33,-1.61 -1,-1z"/>
   <path class="fil1" d="M371.62 670.83c-0.69,0.64 -1.42,0.73 -2.32,0.73 -0.91,0 -0.91,1.41 0,1.41 1.29,-0 2.35,-0.24 3.32,-1.14 0.66,-0.62 -0.33,-1.62 -1,-1z"/>
   <path class="fil1" d="M368.8 665.19l-1.88 1.88c-0.64,0.64 0.35,1.64 1,1l1.88 -1.88c0.64,-0.64 -0.35,-1.64 -1,-1z"/>
   <path class="fil1" d="M357.08 672.51l-3.76 0c-0.91,0 -0.91,1.41 0,1.41l3.76 0c0.91,0 0.91,-1.41 0,-1.41z"/>
   <path class="fil2" d="M372.54 1.61c-6.76,1.17 -8.21,9.21 -8.95,14.75 -0.56,4.18 -0.68,8.43 -0.71,12.67 0.36,2.77 0.76,5.52 1.1,8.22 0.91,7.34 2.4,15.01 2.17,22.46 5.96,-5.15 14.21,-7.46 21.51,-9.9 7.89,-2.64 19.31,-5.35 24.05,-12.95 4.11,-6.59 4.24,-15.52 -4.52,-17.7 -5.89,-1.47 -12.42,-0.5 -18.02,1.97 -0.2,0.83 -0.44,1.65 -0.75,2.45 -0.28,0.72 -1.46,0.41 -1.18,-0.32 0.19,-0.48 0.36,-0.97 0.5,-1.46 -0.58,0.29 -1.16,0.59 -1.71,0.91 -0.68,0.39 -1.27,-0.67 -0.59,-1.07 0.85,-0.49 1.75,-0.95 2.67,-1.38 0.66,-3.42 0.3,-7.04 -0.98,-10.28 -3.64,-4.81 -8.34,-9.45 -14.6,-8.37z"/>
   <path class="fil2" d="M415.21 31.79c-0.45,1.5 -1.05,2.86 -1.76,4.1 1.61,-2.56 2.6,-5.5 2.58,-8.87 -0.04,-7.4 -5.86,-9.68 -11.91,-9.69 1.16,0.13 2.29,0.34 3.4,0.65 6.49,1.83 9.68,7.22 7.69,13.8z"/>
   <path class="fil1" d="M371.52 696.08c-9.81,4.98 -19.05,10.82 -28.19,16.92 -1.51,1 -0.09,3.45 1.42,2.43 9.15,-6.1 18.38,-11.94 28.19,-16.92 1.62,-0.82 0.19,-3.25 -1.42,-2.43z"/>
   <path class="fil1" d="M399.71 690.44c-10.94,8.04 -22.9,14.52 -33.83,22.56 -1.45,1.07 -0.04,3.51 1.42,2.43 10.94,-8.04 22.9,-14.52 33.83,-22.55 1.45,-1.07 0.04,-3.51 -1.42,-2.44z"/>
   <path class="fil1" d="M413.3 696.58c-1.88,3.55 -5.72,7.6 -10.06,7.76 -1.81,0.07 -1.82,2.89 0,2.82 5.35,-0.19 10.13,-4.67 12.49,-9.16 0.85,-1.61 -1.59,-3.03 -2.43,-1.42z"/>
   <path class="fil1" d="M433.26 701.94c-0.96,0.96 -2.11,1.94 -2.73,3.18 -0.53,1.07 -0.51,2.29 -0.51,3.45 -0,1.82 2.82,1.82 2.82,0 0,-0.71 -0.08,-1.62 0.2,-2.19 0.47,-0.95 1.47,-1.72 2.2,-2.46 1.29,-1.29 -0.71,-3.28 -1.99,-1.99z"/>
   <path class="fil1" d="M320.49 704.76c-2.61,2.61 -5.84,5.53 -6.05,9.46 -0.1,1.82 2.72,1.81 2.82,0 0.16,-3 3.26,-5.5 5.23,-7.46 1.28,-1.29 -0.71,-3.28 -1.99,-1.99z"/>
   <path class="fil1" d="M290.47 707.17c-3.6,0.14 -4.49,3.82 -6.63,6.05 -1.26,1.31 0.73,3.3 1.99,1.99 1.03,-1.07 1.86,-2.28 2.64,-3.54 0.51,-0.82 0.95,-1.65 2,-1.69 1.81,-0.07 1.82,-2.89 0,-2.82z"/>
  </g>
 </g>
</svg>
