<?xml version="1.0" encoding="UTF-8"?>
<!DOCTYPE svg PUBLIC "-//W3C//DTD SVG 1.1//EN" "http://www.w3.org/Graphics/SVG/1.1/DTD/svg11.dtd">
<!-- Creator: CorelDRAW 2020 (64-Bit) -->
<svg xmlns="http://www.w3.org/2000/svg" xml:space="preserve" width="25.9559mm" height="12.6365mm" version="1.1" style="shape-rendering:geometricPrecision; text-rendering:geometricPrecision; image-rendering:optimizeQuality; fill-rule:evenodd; clip-rule:evenodd"
viewBox="0 0 3031.75 1475.99"
 xmlns:xlink="http://www.w3.org/1999/xlink"
 xmlns:xodm="http://www.corel.com/coreldraw/odm/2003">
 <defs>
  <style type="text/css">
   <![CDATA[
    .fil0 {fill:#FEFEFE}
    .fil1 {fill:#FEFEFE;fill-rule:nonzero}
   ]]>
  </style>
 </defs>
 <g id="DESIGNED_x0020_BY_x0020_FREEPIK">
  <metadata id="CorelCorpID_0Corel-Layer"/>
  <g id="_2765485866224">
   <path class="fil0" d="M705.48 179.17c-25.17,13.43 -58.39,22.64 -80.43,-1.54 -14.76,-16.18 -21.14,-48.18 -14.12,-68.67 5.52,-16.12 21.26,-26.76 37.58,-29.57 22.01,-3.8 42.62,5.91 57.98,21.26 14.8,14.8 21.9,33.34 15.16,53.74 -2.7,8.15 -8.29,17.58 -14.55,23.62l-0.72 0.69 -0.89 0.48zm-17.82 -22.68c10.97,-11.35 9.94,-26.02 -1.27,-37.24 -8.12,-8.13 -19.05,-13.85 -30.8,-11.83 -7.18,1.24 -14.92,5.84 -17.38,13.05 -2.51,7.34 -1.02,19.38 1.55,26.53 8.4,23.41 29.42,19.12 47.9,9.5z"/>
   <path class="fil0" d="M748.28 45.92c-1.64,14.09 -7.28,30.23 -23.38,32.39 -10.79,1.45 -25.65,-5.01 -32.04,-13.68 -5.01,-6.82 -4.91,-16.27 -1.44,-23.72 4.7,-10.07 14.46,-15.72 25.09,-17.65 15.52,-2.81 29.39,5.88 31.76,21.7l0.08 0.48 -0.07 0.48zm-16.39 1.17c-1.33,-6.54 -6.68,-9.66 -13.28,-8.47 -7.59,1.38 -16.88,9.62 -11.4,17.07 1.97,2.67 6.63,5.1 9.76,5.95 10.3,2.76 13.79,-5.71 14.92,-14.54z"/>
   <path class="fil0" d="M376.61 559.5c-99.24,-102.44 -65.28,-312.26 75.34,-359.77 76.56,-25.87 177.89,-19 232.43,47.13 50.83,61.65 86.42,145.91 54.94,224.82 -44.53,111.59 -272.63,180.79 -362.71,87.81zm88.96 -327.82c-115.67,39.83 -141.51,218.14 -61.15,302.7 74.12,78 263.67,10.29 298.12,-72.75 27.68,-66.73 -3.45,-139.5 -45.97,-192.05 -44.3,-54.77 -128.53,-59.41 -191,-37.9z"/>
   <path class="fil1" d="M172.93 533.71c12.67,0 22.02,-3.43 28.21,-10.29 6.1,-6.96 9.15,-17.07 9.15,-30.5l86.32 0 0.57 1.72c0.68,32.96 -10.66,59.75 -34.2,80.51 -23.54,20.77 -53.55,31.15 -90.04,31.15 -45.82,0 -81.09,-14.19 -105.95,-42.68 -24.87,-28.49 -37.25,-65.36 -37.25,-110.72l0 -6.48c0,-45.16 12.38,-82.03 37.06,-110.61 24.77,-28.49 59.84,-42.79 105.29,-42.79 38.3,0 68.98,10.68 91.84,32.11 22.87,21.45 33.93,50.51 33.25,87.37l-0.57 1.72 -86.32 0c0,-14.39 -3.14,-26.01 -9.44,-35.06 -6.38,-9.05 -15.91,-13.53 -28.77,-13.53 -17.82,0 -30.39,7.34 -37.54,22.01 -7.15,14.68 -10.77,34.31 -10.77,58.79l0 6.48c0,25.25 3.62,45.07 10.77,59.36 7.15,14.3 19.92,21.45 38.39,21.45zm647.23 66.88l0 -236.68 -43.53 0 0 -65.16 43.53 0 0 -31.35c0,-34.78 10.49,-61.56 31.26,-80.23 20.86,-18.57 50.4,-27.92 88.51,-27.92 7.05,0 14.3,0.48 21.82,1.53 7.43,1.04 15.72,2.48 24.77,4.29l-6.95 69.56c-5.06,-0.96 -9.53,-1.62 -13.54,-2.1 -3.99,-0.48 -8.85,-0.67 -14.67,-0.67 -11.72,0 -20.77,3.05 -27.06,9.24 -6.28,6.2 -9.52,14.96 -9.52,26.3l0 31.35 58.69 0 0 65.16 -58.69 0 0 236.68 -94.62 0zm186.85 0l0 -236.68 -43.53 0 0 -65.16 43.53 0 0 -31.35c0,-34.78 10.49,-61.56 31.26,-80.23 20.86,-18.57 50.4,-27.92 88.51,-27.92 7.05,0 14.3,0.48 21.82,1.53 7.43,1.04 15.72,2.48 24.77,4.29l-6.95 69.56c-5.06,-0.96 -9.53,-1.62 -13.54,-2.1 -3.99,-0.48 -8.85,-0.67 -14.67,-0.67 -11.72,0 -20.77,3.05 -27.06,9.24 -6.28,6.2 -9.52,14.96 -9.52,26.3l0 31.35 58.69 0 0 65.16 -58.69 0 0 236.68 -94.62 0zm304.72 5.71c-44.49,0 -80.03,-13.91 -106.53,-41.83 -26.49,-27.92 -39.83,-62.88 -39.83,-104.9l0 -10.57c0,-45.93 12.1,-83.47 36.21,-112.62 24.11,-29.06 58.6,-43.54 103.38,-43.36 40.97,0 73.08,12.29 96.33,36.78 23.24,24.48 34.88,57.74 34.88,99.66l0 49.36 -172.46 0 -0.57 1.72c2,15.43 8.39,28.2 18.96,38.21 10.58,10 24.77,14.96 42.4,14.96 17.92,0 32.2,-1.44 42.88,-4.19 10.68,-2.77 24.2,-7.63 40.59,-14.48l22.39 57.46c-13.25,9.72 -30.3,17.72 -51.27,24.2 -20.95,6.38 -43.35,9.61 -67.36,9.61zm-6.76 -240.67c-13.53,0 -23.72,4.77 -30.59,14.39 -6.76,9.62 -10.86,22.48 -12.38,38.49l0.85 1.44 81.18 0 0 -7.24c0,-15.15 -3.14,-26.77 -9.43,-34.88 -6.39,-8.09 -16.2,-12.19 -29.63,-12.19zm288.51 240.67c-44.49,0 -80.03,-13.91 -106.53,-41.83 -26.49,-27.92 -39.83,-62.88 -39.83,-104.9l0 -10.57c0,-45.93 12.1,-83.47 36.21,-112.62 24.11,-29.06 58.6,-43.54 103.38,-43.36 40.97,0 73.08,12.29 96.33,36.78 23.24,24.48 34.88,57.74 34.88,99.66l0 49.36 -172.46 0 -0.57 1.72c2,15.43 8.39,28.2 18.96,38.21 10.58,10 24.77,14.96 42.4,14.96 17.92,0 32.2,-1.44 42.88,-4.19 10.68,-2.77 24.2,-7.63 40.59,-14.48l22.39 57.46c-13.25,9.72 -30.3,17.72 -51.27,24.2 -20.95,6.38 -43.35,9.61 -67.36,9.61zm-6.76 -240.67c-13.53,0 -23.72,4.77 -30.59,14.39 -6.76,9.62 -10.86,22.48 -12.38,38.49l0.85 1.44 81.18 0 0 -7.24c0,-15.15 -3.14,-26.77 -9.43,-34.88 -6.39,-8.09 -16.2,-12.19 -29.63,-12.19z"/>
   <path class="fil1" d="M228.5 1058.07c23.17,0 41.5,-6.87 55.15,-20.67 13.7,-13.85 20.52,-32.34 20.52,-55.35l121.1 0 0.96 2.8c1.23,49.75 -17.26,91.4 -55.66,124.97 -38.24,33.6 -85.5,50.21 -142.08,50.37 -72.77,-0.15 -129.18,-23.33 -168.97,-69.93 -39.65,-46.64 -59.53,-106.17 -59.53,-178.79l0 -13.65c0,-72.3 19.72,-131.84 59.38,-178.78 39.62,-46.96 95.74,-70.43 168.31,-70.43 60.04,0 108.52,17.42 145.22,51.94 36.68,34.68 54.55,80.21 53.32,136.63l-0.96 2.8 -121.1 0c0,-25.51 -6.82,-46.64 -20.36,-63.55 -13.5,-16.81 -32.14,-25.21 -56.12,-25.21 -34.33,0 -58.73,13.69 -73.19,41.2 -14.31,27.51 -21.63,62.64 -21.63,105.4l0 13.65c0,43.7 7.32,79.13 21.63,106.19 14.46,26.89 39.16,40.43 74,40.43zm500.69 -286.04l-48.68 -1.23c-19.72,0 -36.05,4.03 -48.79,12.28 -12.73,8.09 -22.4,19.75 -29.07,34.53l0 332.94 -132.61 0 0 -492.74 123.44 0 5.91 72.87c11.51,-25.81 26.58,-45.99 44.91,-60.29 18.34,-14.46 39.48,-21.8 63.41,-21.8 6.7,0 12.92,0.65 18.53,1.73 5.59,1.07 11.35,2.35 17.11,3.88l-14.16 117.83zm240.46 388.15c-73.34,-0.15 -130.88,-22.67 -172.08,-67.78 -41.35,-45.07 -62.02,-103.03 -62.02,-174.07l0 -18.22c0,-73.83 20.06,-134.29 60.19,-181.23 40.08,-47.11 95.12,-70.58 165.36,-70.28 66.09,0 116.91,20.37 152.21,60.96 35.44,40.43 53.16,94.97 53.16,163.67l0 68.74 -293.78 0 -1.41 2.77c2.18,33.76 12.43,60.95 30.8,81.93 18.33,20.99 45.68,31.42 81.74,31.42 29.69,0 55.04,-2.96 75.88,-9.02 20.83,-6.06 42.26,-15.38 64.32,-27.85l36.09 81.93c-19.75,16.15 -46.49,29.69 -80.21,40.59 -33.76,10.85 -70.42,16.31 -110.24,16.46zm-8.55 -408.98c-26.74,0 -47.41,9.17 -61.68,27.51 -14.46,18.37 -23.16,42.76 -26.27,73.07l0.91 2.34 162.15 0 0 -10.13c0,-28.73 -5.91,-51.44 -17.72,-68.08 -11.97,-16.46 -31.12,-24.7 -57.39,-24.7zm539.73 399.34c-4.79,-11.19 -9.01,-23.01 -12.43,-35.59 -3.56,-12.43 -6.05,-25.21 -7.59,-38.24 -13.69,24.08 -31.72,44 -54.12,59.69 -22.52,15.87 -49.26,23.63 -80.21,23.78 -51.59,-0.15 -91.41,-13.35 -119.22,-39.94 -28,-26.58 -41.96,-62.79 -41.96,-108.66 0,-48.18 18.64,-85.65 55.81,-112.24 37.13,-26.58 91.36,-39.78 162.75,-39.78l74.75 0 0 -39.2c0,-23.59 -6.21,-42.12 -18.64,-55.15 -12.46,-12.93 -31.1,-19.45 -55.66,-19.45 -21.48,0 -38.09,5.14 -49.9,15.72 -11.67,10.4 -17.42,24.7 -17.42,42.89l-128.09 0 -0.81 -2.65c-2.14,-41.65 16.04,-77.56 54.43,-107.7 38.41,-30.16 88.46,-45.42 150.48,-45.42 59.23,0 107.1,14.96 143.62,44.81 36.55,29.69 54.89,72.27 54.89,127.92l0 203.5c0,23.13 1.69,44.76 5.29,65.13 3.41,20.32 9.02,40.54 16.61,60.6l-132.61 0zm-121.55 -88.76c23.16,0 43.68,-5.75 62.02,-17.42 18.17,-11.51 30.65,-24.86 37.32,-39.92l0 -69.81 -74.75 0c-28.16,0 -49.61,6.98 -63.9,20.98 -14.47,14 -21.76,31.12 -21.76,51.48 0,16.77 5.42,30 16.15,39.78 10.9,9.93 25.81,14.92 44.92,14.92zm457.95 -406.48l0 77.07 83.32 0 0 93.4 -83.32 0 0 176.34c0,18.95 3.91,32.94 11.97,41.03 7.93,8.02 18.64,12.28 31.71,12.28 6.98,0 13.05,-0.46 18.19,-1.26 5.14,-0.77 11.05,-2 17.72,-3.88l11.05 96.25c-13.39,4.49 -26.43,7.9 -39.01,10.23 -12.61,2.2 -26.27,3.27 -41.2,3.42 -45.87,-0.15 -81.24,-12.85 -105.87,-37.94 -24.59,-25.09 -37.17,-65.18 -37.17,-119.68l0 -176.79 -71.95 0 0 -93.4 71.95 0 0 -77.07 132.61 0zm271.57 495.24l-133.02 0 0 -373.8 133.02 0 0 373.8zm0 -396.62l-133.02 0 0 -99.66 133.02 0 0 99.66zm253.86 213.04l8.55 45.53 2.8 0 9.02 -45.53 81.16 -309.16 138.97 0 -167.74 492.74 -127 0 -167.58 -492.74 138.81 0 83.01 309.16zm472.26 193.22c-73.34,-0.15 -130.88,-22.67 -172.08,-67.78 -41.35,-45.07 -62.02,-103.03 -62.02,-174.07l0 -18.22c0,-73.83 20.07,-134.29 60.19,-181.23 40.08,-47.11 95.12,-70.58 165.36,-70.28 66.09,0 116.91,20.37 152.21,60.96 35.44,40.43 53.16,94.97 53.16,163.67l0 68.74 -293.78 0 -1.41 2.77c2.18,33.76 12.43,60.95 30.8,81.93 18.33,20.99 45.68,31.42 81.74,31.42 29.69,0 55.04,-2.96 75.88,-9.02 20.83,-6.06 42.26,-15.38 64.32,-27.85l36.09 81.93c-19.75,16.15 -46.49,29.69 -80.21,40.59 -33.76,10.85 -70.42,16.31 -110.24,16.46zm-8.55 -408.98c-26.74,0 -47.41,9.17 -61.68,27.51 -14.46,18.37 -23.16,42.76 -26.27,73.07l0.91 2.34 162.15 0 0 -10.13c0,-28.73 -5.91,-51.44 -17.72,-68.08 -11.97,-16.46 -31.12,-24.7 -57.39,-24.7z"/>
   <path class="fil0" d="M89.45 1407.39l0 -157.03c0,-3.61 -0.88,-6.8 -3.61,-9.23 -2.67,-2.34 -5.64,-3.47 -9.18,-3.47 -3.33,0 -6.3,0.78 -8.88,3.19 -2.87,2.52 -3.94,5.7 -3.94,9.51l0 157.03c0,3.7 0.9,6.97 4.05,9.65 2.46,2.29 5.45,3.04 8.76,3.04 3.54,0 6.55,-1.09 9.25,-3.38 2.78,-2.38 3.54,-5.75 3.54,-9.31zm169.65 -39.48l0 -13.26c0,-20.01 -4.03,-39.96 -15.94,-56.43 -12.37,-17.09 -29.66,-24.24 -50.42,-24.24 -20.27,0 -39.49,5.15 -53.72,20.35 -14.27,15.21 -19.18,34.87 -19.18,55.34 0,20.03 5.38,38.38 19.68,52.77 14.23,14.32 32.34,19.8 52.28,19.8 3.84,0 8.13,-0.65 10.97,-3.52 2.41,-2.38 3.54,-5.12 3.54,-8.49 0,-3.7 -1.27,-6.73 -3.82,-9.41 -2.81,-2.97 -6.7,-3.84 -10.69,-3.84 -16.54,0 -31.67,-5.22 -40.27,-20.08l-5.22 -8.99 112.8 0zm-26.16 -25.29l-88.05 0 1.25 -7.05c4.49,-25.12 21.81,-36.28 46.59,-36.28 22.8,0 34.6,14.97 38.79,36.19l1.41 7.15zm124.27 -64.9l-32.49 0 0 -20.91c0,-3.56 -0.84,-6.77 -3.54,-9.23 -2.64,-2.41 -5.7,-3.4 -9.26,-3.4 -3.54,0 -6.52,1.11 -9.18,3.45 -2.73,2.43 -3.61,5.62 -3.61,9.18l0 18.28 -2.91 1.75c-3.47,2.13 -13.56,8.66 -13.56,13.51 0,3.28 0.9,6.09 2.98,8.63 2.04,2.49 4.84,3.47 7.99,3.74l5.5 0.44 0 72.9c0,29.12 11.22,46.17 41.66,46.17 9.62,0 28.94,-0.58 28.94,-14.18 0,-3.91 -1.65,-6.91 -4.56,-9.51 -2.92,-2.59 -6.02,-3.8 -9.76,-3.26 -4.67,0.97 -9.53,1.68 -14.32,1.68 -5.37,0 -11.75,-1.02 -14.97,-6.75 -1.47,-3.45 -1.4,-10.43 -1.4,-14.16l0 -73.06 32.49 0c3.54,0 6.72,-0.85 9.12,-3.56 2.31,-2.62 3.4,-5.59 3.4,-9.09 0,-3.49 -0.99,-6.55 -3.35,-9.15 -2.43,-2.7 -5.63,-3.49 -9.17,-3.49zm158.58 96.8c0,-14.82 -5.85,-25.24 -19.66,-31.12 -10.85,-4.65 -30.36,-8.09 -42.04,-10.52 -7.87,-1.65 -31.16,-5.66 -31.16,-16.73 0,-10.78 8.63,-15.9 18.53,-17.77 6.09,-0.83 13.61,-0.67 19.76,-0.67 9.74,0 19.68,1.45 28.59,5.52 1.87,0.85 3.82,1.32 5.88,1.32 3.42,0 5.99,-1.44 8.21,-4.01 2.43,-2.79 3.82,-5.88 3.82,-9.58 0,-5.55 -2.64,-8.76 -7.62,-10.97 -12.24,-5.45 -25.56,-7.56 -38.88,-7.56 -15.5,0 -30.74,3 -44.07,11.21 -13.3,8.2 -20.43,19.51 -20.43,35.26 0,14.8 7.98,23.97 21.12,29.96 10.9,4.96 30.59,8.07 42.43,10.1 8.21,1.39 29.91,4.65 29.91,16.15 0,10.36 -9.19,15.56 -18,18.17 -7.29,2.15 -14.95,3.04 -22.55,3.04 -10.66,0 -22.86,-3.66 -33.34,-7.38 -1.39,-0.61 -2.87,-1.02 -4.4,-1.02 -3.49,0 -6.11,1.32 -8.37,3.97 -2.38,2.8 -3.68,5.9 -3.68,9.6 0,5.99 2.83,9.17 8.49,11.15 12.68,4.72 27.46,8.95 41.09,8.95 15.43,0 32.52,-2.13 46.06,-10.06 14.18,-8.3 20.31,-20.76 20.31,-37.06zm211.77 -78.14c-11.54,-13.75 -26.02,-20.52 -44,-20.52 -8.16,0 -15.9,1.96 -21.63,8.07l-10.36 11.01 0 -39.05c0,-3.54 -0.83,-6.76 -3.52,-9.23 -2.64,-2.41 -5.69,-3.41 -9.27,-3.41 -3.54,0 -6.51,1.11 -9.15,3.47 -2.77,2.45 -3.63,5.63 -3.63,9.22l0 151.45c0,3.59 0.86,6.81 3.59,9.26 2.62,2.34 5.54,3.42 9.03,3.42 4.28,0 7.53,-1.39 10.03,-4.93l3.08 -4.39 4.72 2.63c7.88,4.4 16.31,6.69 25.35,6.69 19.46,0 36.35,-5.95 49.16,-20.87 11.59,-13.53 16.28,-29.68 16.28,-47.35 0,-20.88 -6.24,-39.44 -19.68,-55.47zm-19.6 16.21c9.67,11.47 13.68,25.31 13.68,40.2 0,10.35 -2.38,20.43 -9.02,28.62 -7.73,9.58 -18.65,13.4 -30.78,13.4 -6.07,0 -12.04,-3.26 -16.76,-6.56 -8.13,-5.14 -13.51,-12.5 -13.51,-22.4l0 -38.53c0,-17.88 12.39,-25.24 29.05,-25.24 10.16,0 20.52,2.43 27.34,10.52zm149.29 -37.52c-3.31,-0.7 -6.73,-1.09 -10.14,-1.09 -7.32,0 -14.27,1.64 -20.93,4.72 -5.71,2.67 -11.18,6.33 -14.94,11.47l-8.19 11.15 -2.55 -13.58c-1.34,-7.24 -5.12,-10.02 -12.4,-10.02 -3.52,0 -6.45,1.13 -9.09,3.46 -2.71,2.44 -3.56,5.66 -3.56,9.23l0 116.98c0,3.54 0.76,6.93 3.54,9.31 2.7,2.29 5.71,3.38 9.25,3.38 3.54,0 6.59,-1.06 9.25,-3.35 2.8,-2.43 3.56,-5.79 3.56,-9.38l0 -66.46c0,-11.89 7.97,-21.45 16.75,-28.57 8.87,-7.17 19.55,-13.02 31.26,-13.02 1.87,0 3.82,0.35 5.64,0.75 0.88,0.2 2.17,0.5 3.06,0.5 2.93,0 5.5,-0.71 7.44,-3 2.09,-2.52 2.92,-5.47 2.92,-8.73 0,-7.81 -3.56,-11.82 -10.87,-13.74zm170.26 92.84l0 -13.26c0,-20.01 -4.03,-39.96 -15.94,-56.43 -12.37,-17.09 -29.66,-24.24 -50.42,-24.24 -20.27,0 -39.49,5.15 -53.72,20.35 -14.27,15.21 -19.18,34.87 -19.18,55.34 0,20.03 5.38,38.38 19.68,52.77 14.23,14.32 32.34,19.8 52.28,19.8 3.84,0 8.13,-0.65 10.97,-3.52 2.41,-2.38 3.54,-5.12 3.54,-8.49 0,-3.7 -1.27,-6.73 -3.82,-9.41 -2.81,-2.97 -6.7,-3.84 -10.69,-3.84 -16.54,0 -31.67,-5.22 -40.27,-20.08l-5.22 -8.99 112.8 0zm-26.16 -25.29l-88.05 0 1.25 -7.05c4.49,-25.12 21.81,-36.28 46.59,-36.28 22.8,0 34.59,14.97 38.79,36.19l1.41 7.15zm282.12 -47.94c0.57,-1.68 0.95,-3.47 0.95,-5.24 0,-3.46 -1.2,-6.11 -3.82,-8.37 -2.73,-2.36 -5.81,-3.66 -9.44,-3.66 -6.2,0 -9.48,2.91 -11.49,8.78l-41.76 116.43 -38.76 -111.69c-2.1,-6.31 -5.69,-13.53 -13.27,-13.53 -7.24,0 -10.78,6.02 -12.99,12.21l-40.54 113.26 -40.15 -116.64c-2.03,-5.64 -5.22,-8.83 -11.35,-8.83 -3.61,0 -6.65,1.27 -9.37,3.63 -2.69,2.36 -3.84,5.17 -3.84,8.71 0,1.67 0.28,3.27 0.67,4.74l30.73 94.65c2.72,8.37 6.96,16.47 13.67,22.34 5.09,4.46 10.9,7.36 17.74,7.36 17.72,0 27.09,-14.93 32.72,-29.82l21.92 -60.04 19.44 60.2c4.91,15.24 13.64,29.66 31.3,29.66 17.67,0 27.06,-14.97 32.63,-29.94l35.01 -94.23zm185.39 -16.96l-32.48 0 0 -20.91c0,-3.56 -0.85,-6.77 -3.54,-9.23 -2.64,-2.41 -5.71,-3.4 -9.27,-3.4 -3.54,0 -6.51,1.11 -9.18,3.45 -2.73,2.43 -3.61,5.62 -3.61,9.18l0 18.28 -2.9 1.75c-3.47,2.13 -13.56,8.66 -13.56,13.51 0,3.28 0.89,6.09 2.97,8.63 2.06,2.49 4.84,3.47 8,3.74l5.49 0.44 0 72.9c0,29.12 11.24,46.17 41.66,46.17 9.62,0 28.96,-0.58 28.96,-14.18 0,-3.91 -1.66,-6.91 -4.56,-9.51 -2.93,-2.59 -6.02,-3.8 -9.76,-3.26 -4.67,0.97 -9.53,1.68 -14.32,1.68 -5.38,0 -11.75,-1.02 -14.99,-6.75 -1.46,-3.45 -1.39,-10.43 -1.39,-14.16l0 -73.06 32.48 0c3.54,0 6.73,-0.85 9.13,-3.56 2.31,-2.62 3.4,-5.59 3.4,-9.09 0,-3.49 -0.99,-6.55 -3.35,-9.15 -2.43,-2.7 -5.64,-3.49 -9.18,-3.49zm153.92 53.44c0,-15.27 -5.06,-28.1 -16.78,-38.03 -10.8,-9.2 -23.42,-13.25 -37.58,-13.25 -9.16,0 -18.02,1.96 -26.44,5.45l-8.3 3.47 0 -38.19c0,-3.49 -0.74,-6.94 -3.47,-9.32 -2.7,-2.36 -5.78,-3.33 -9.34,-3.33 -3.54,0 -6.56,1.06 -9.25,3.38 -2.78,2.38 -3.54,5.78 -3.54,9.32l0 156.73c0,3.56 0.76,6.93 3.54,9.31 2.69,2.31 5.71,3.38 9.25,3.38 3.56,0 6.65,-0.97 9.34,-3.33 2.73,-2.38 3.47,-5.79 3.47,-9.29l0 -75.48c0,-8.7 4.4,-15.48 11.44,-20.13 6.63,-4.63 14.13,-6.67 22.18,-6.67 7.43,0 14.58,1.81 20.62,6.3 6.49,4.84 9.3,11.89 9.3,19.89l0 76.09c0,3.49 0.71,6.9 3.45,9.29 2.69,2.36 5.78,3.33 9.34,3.33 3.54,0 6.55,-1.06 9.25,-3.38 2.78,-2.38 3.54,-5.77 3.54,-9.31l0 -76.23zm170.26 17.59c0,-20.17 -6.09,-37.89 -20.08,-52.56 -14.04,-14.72 -31.67,-20.95 -51.88,-20.95 -20.1,0 -37.44,6.47 -51.41,21.12 -13.97,14.66 -20.24,32.27 -20.24,52.4 0,19.68 4.84,38.46 18.57,53.04 14.12,15 32.81,20.45 53.08,20.45 20.1,0 38.24,-5.64 52.35,-20.36 14.06,-14.67 19.61,-32.99 19.61,-53.13zm-25.6 0c0,12.81 -2.99,25.49 -11.87,35.11 -9.01,9.76 -21.56,13.12 -34.49,13.12 -31.07,0 -46.04,-17.86 -46.04,-48.23 0,-13.07 3.8,-25.03 12.87,-34.56 8.95,-9.37 20.29,-13.65 33.17,-13.65 12.95,0 24.61,4.03 33.64,13.49 9.11,9.55 12.72,21.68 12.72,34.73zm184.07 71.32l0 -131.01c0,-3.52 -0.74,-6.87 -3.47,-9.25 -2.66,-2.36 -5.78,-3.32 -9.32,-3.32 -3.56,0 -6.58,1.07 -9.3,3.39 -2.73,2.31 -3.52,5.64 -3.52,9.13l0 105.79 -5.99 0c-9.22,0 -18.44,0 -27.67,0 -6.06,0 -12.1,0 -18.16,0 -17.01,0 -26.92,-9.27 -26.92,-26.44l0 -79.3c0,-3.54 -0.77,-6.82 -3.54,-9.2 -2.69,-2.31 -5.71,-3.36 -9.25,-3.36 -3.54,0 -6.55,1.07 -9.24,3.36 -2.79,2.38 -3.56,5.64 -3.56,9.2l0 79.34c0,14.44 4.01,27.39 14.51,37.58 10.45,10.13 23.5,14.09 37.89,14.09l77.55 0zm164.67 -31.56l0 -85.41c0,-7.05 -4.57,-12.53 -9.83,-16.75 -6.34,-5.07 -13.54,-8.33 -21.75,-8.33l-23.5 0c-18.47,0 -34.38,5.95 -47.21,19.41 -12.75,13.4 -18.63,29.42 -18.63,47.89 0,45.27 17.24,73.82 65.11,73.82 5.52,0 11.52,-0.16 16.97,-1.14l11.37 -2.06 -4.88 10.48c-5.99,12.87 -15.66,21.94 -29.84,24.48 -7.24,1.3 -10.59,4.67 -10.59,12.12 0,3.56 1.11,6.61 3.42,9.34 2.24,2.66 5.16,3.61 8.61,3.61 20.93,0 35.18,-11.8 45.44,-29.32 10.48,-17.91 15.34,-37.42 15.34,-58.16zm-27.01 -5.74c-7.74,7.8 -17.74,11.08 -28.64,11.08 -12.18,0 -25.21,-2.78 -32.49,-13.47 -6.3,-9.23 -7.2,-24.23 -7.2,-35.06 0,-11.41 3.42,-21.8 11.4,-30.08 7.85,-8.16 17.88,-11.94 29.15,-11.94 5.88,0 11.59,1.06 17.07,3.24 6.41,2.52 12.43,7.03 12.43,14.55l0 59.9 -1.72 1.78zm173.35 -51.62c0,-15.27 -5.05,-28.1 -16.77,-38.03 -10.8,-9.2 -23.42,-13.25 -37.58,-13.25 -9.16,0 -18.02,1.96 -26.46,5.45l-8.3 3.47 0 -38.19c0,-3.49 -0.72,-6.94 -3.46,-9.32 -2.7,-2.36 -5.78,-3.33 -9.34,-3.33 -3.54,0 -6.56,1.06 -9.25,3.38 -2.78,2.38 -3.54,5.78 -3.54,9.32l0 156.73c0,3.56 0.76,6.93 3.54,9.31 2.69,2.31 5.71,3.38 9.25,3.38 3.56,0 6.65,-0.97 9.34,-3.33 2.73,-2.38 3.46,-5.79 3.46,-9.29l0 -75.48c0,-8.7 4.42,-15.48 11.45,-20.13 6.63,-4.63 14.13,-6.67 22.18,-6.67 7.43,0 14.58,1.81 20.62,6.3 6.49,4.84 9.3,11.89 9.3,19.89l0 76.09c0,3.49 0.7,6.9 3.45,9.29 2.69,2.36 5.78,3.33 9.34,3.33 3.54,0 6.55,-1.06 9.24,-3.38 2.79,-2.38 3.54,-5.77 3.54,-9.31l0 -76.23zm100.91 -53.44l-32.48 0 0 -20.91c0,-3.56 -0.85,-6.77 -3.54,-9.23 -2.64,-2.41 -5.71,-3.4 -9.27,-3.4 -3.54,0 -6.51,1.11 -9.18,3.45 -2.73,2.43 -3.61,5.62 -3.61,9.18l0 18.28 -2.9 1.75c-3.47,2.13 -13.56,8.66 -13.56,13.51 0,3.28 0.89,6.09 2.97,8.63 2.06,2.49 4.84,3.47 8,3.74l5.49 0.44 0 72.9c0,29.12 11.24,46.17 41.66,46.17 9.62,0 28.96,-0.58 28.96,-14.18 0,-3.91 -1.66,-6.91 -4.56,-9.51 -2.93,-2.59 -6.02,-3.8 -9.76,-3.26 -4.67,0.97 -9.53,1.68 -14.32,1.68 -5.38,0 -11.75,-1.02 -14.99,-6.75 -1.46,-3.45 -1.39,-10.43 -1.39,-14.16l0 -73.06 32.48 0c3.54,0 6.73,-0.85 9.13,-3.56 2.31,-2.62 3.4,-5.59 3.4,-9.09 0,-3.49 -0.99,-6.55 -3.35,-9.15 -2.43,-2.7 -5.64,-3.49 -9.18,-3.49zm158.6 96.8c0,-14.82 -5.85,-25.24 -19.66,-31.12 -10.85,-4.65 -30.37,-8.09 -42.04,-10.52 -7.88,-1.65 -31.17,-5.66 -31.17,-16.73 0,-10.78 8.64,-15.9 18.53,-17.77 6.09,-0.83 13.61,-0.67 19.77,-0.67 9.74,0 19.67,1.45 28.59,5.52 1.86,0.85 3.82,1.32 5.88,1.32 3.41,0 5.99,-1.44 8.21,-4.01 2.43,-2.79 3.82,-5.88 3.82,-9.58 0,-5.55 -2.64,-8.76 -7.63,-10.97 -12.24,-5.45 -25.54,-7.56 -38.87,-7.56 -15.5,0 -30.74,3 -44.07,11.21 -13.32,8.2 -20.44,19.51 -20.44,35.26 0,14.8 7.98,23.97 21.12,29.96 10.9,4.96 30.6,8.07 42.45,10.1 8.21,1.39 29.91,4.65 29.91,16.15 0,10.36 -9.2,15.56 -18,18.17 -7.29,2.15 -14.96,3.04 -22.55,3.04 -10.66,0 -22.86,-3.66 -33.34,-7.38 -1.39,-0.61 -2.89,-1.02 -4.42,-1.02 -3.49,0 -6.11,1.32 -8.37,3.97 -2.38,2.8 -3.68,5.9 -3.68,9.6 0,5.99 2.83,9.17 8.49,11.15 12.7,4.72 27.46,8.95 41.1,8.95 15.43,0 32.51,-2.13 46.04,-10.06 14.18,-8.3 20.32,-20.76 20.32,-37.06z"/>
   <path class="fil1" d="M1865.5 272.28c-16.64,-24.39 -28.9,-46.6 -36.75,-66.51 -7.71,-20.02 -11.22,-40.04 -10.52,-60.45 1.65,-48.02 16.84,-84.72 45.72,-109.85 28.87,-25.17 67.73,-36.98 116.68,-35.31 41.93,1.43 75.68,15.57 101.04,42.43 25.33,26.97 37.53,58.94 36.28,95.85 -0.95,27.46 -7.44,51.07 -19.32,70.69 -11.91,19.77 -29.07,37.87 -51.67,54.29l-41.29 27.04 102.73 128.45c10,-15.23 18.01,-32.02 23.92,-50.37 5.9,-18.2 9.13,-37.72 9.82,-58.3l92.38 3.15c-1.28,37.47 -7.18,71.62 -17.57,102.57 -10.42,30.79 -25.95,57.88 -46.64,81.26l98.31 117.57 -0.9 2 -138.75 1.12 -40.76 -63.65c-22.94,13.84 -46.43,23.89 -70.35,30.37 -24.03,6.49 -49.72,9.13 -76.89,8.36 -57.61,-2.13 -102.79,-18.69 -135.84,-50.12 -33.04,-31.46 -48.74,-71.38 -47.11,-119.93 1.09,-32.05 10.42,-58.94 27.95,-80.97 17.54,-21.99 44.05,-45.32 79.54,-69.71zm269.2 334.18l113.81 0.02 -93.43 -109.63 6.48 -7.35c20.02,-22.64 34.66,-48.61 44.33,-77.27 9.52,-28.25 14.55,-57.85 16.39,-87.58l-69.15 -2.35c-1.37,16.9 -4.51,33.66 -9.72,49.84 -6.07,18.76 -14.45,36.66 -25.28,53.17l-8.83 13.46 -120.78 -151.04 51.67 -33.83c19.1,-13.86 36.16,-30.51 48.42,-50.81 11.91,-19.68 16.87,-42.24 17.65,-65.04 1.17,-33.66 -10.05,-62.98 -33.1,-87.47 -24.89,-26.42 -57.05,-37.53 -92.93,-38.76 -39.04,-1.33 -78.46,6.12 -108.64,32.44 -29.81,25.98 -40.39,62.97 -41.7,101.44 -0.67,19.3 2.72,37.84 9.72,55.83 8.76,22.46 21.96,44.29 35.52,64.17l6.58 9.6 -9.61 6.56c-27.15,18.69 -56.37,41.49 -77.01,67.38 -17.15,21.49 -24.49,46.79 -25.42,74.08 -1.47,43.21 12,81.13 43.49,111.09 34.91,33.24 81.05,45.3 128.18,46.91 24.73,0.86 49.56,-1.47 73.47,-7.93 23.75,-6.46 46.3,-16.4 67.37,-29.13l8.71 -5.26 43.8 67.43zm-185.17 -90.43c-25.31,-0.86 -47.63,-9.55 -64.62,-28.56 -16.74,-18.77 -23.58,-42.01 -22.75,-66.91 0.5,-14.39 4.71,-28.09 11.33,-40.81 8.33,-15.96 22.45,-29.35 36.66,-40.04l12.61 -9.46 128.46 159.41 -12.81 6.52c-13.89,7.07 -28.54,12.38 -43.75,15.72 -14.85,3.29 -29.96,4.63 -45.13,4.12zm-39.62 -368.81c0.61,-18.21 5.99,-35.13 17.63,-49.28 12,-14.59 28.54,-21.07 47.21,-20.43 17.57,0.61 33.2,6.93 44.33,20.91 10.02,12.56 14.95,27.45 14.43,43.51 -0.48,13.42 -3.74,26.23 -10.34,37.95 -7.85,13.92 -21.68,24.59 -35.18,32.63l-39.8 23.69 -6.26 -8.49c-9.38,-12.72 -18.26,-26.64 -24.31,-41.29 -5.15,-12.42 -8.15,-25.7 -7.71,-39.2zm40.01 357.14c14.06,0.48 28.07,-0.81 42.24,-3.84 14.06,-3.17 27.75,-7.99 40.99,-14.72l-112.37 -139.46 -3.6 2.71c-15.98,12.05 -27.09,24.13 -33.32,36.1 -6.24,11.97 -9.6,23.91 -10.02,35.8 -0.78,23.38 5.85,42.98 19.8,58.75 14.09,15.64 32.76,23.85 56.29,24.66zm-28.34 -356.74c-0.36,11.07 1.95,22.54 6.82,34.35 4.89,11.8 12.56,24.77 22.91,38.81l30.68 -18.29c15.2,-8.99 25.42,-18.53 31.01,-28.35 5.49,-9.82 8.44,-20.69 8.83,-32.6 0.47,-13.5 -3.6,-25.45 -11.89,-35.86 -8.33,-10.44 -20.18,-15.98 -35.6,-16.5 -15.82,-0.56 -28.45,4.84 -37.79,16.17 -9.3,11.33 -14.39,25.37 -14.97,42.27z"/>
  </g>
 </g>
</svg>
