<?xml version="1.0" encoding="UTF-8"?>
<!DOCTYPE svg PUBLIC "-//W3C//DTD SVG 1.1//EN" "http://www.w3.org/Graphics/SVG/1.1/DTD/svg11.dtd">
<!-- Creator: CorelDRAW 2020 (64-Bit) -->
<svg xmlns="http://www.w3.org/2000/svg" xml:space="preserve" width="25.9559mm" height="12.6365mm" version="1.1" style="shape-rendering:geometricPrecision; text-rendering:geometricPrecision; image-rendering:optimizeQuality; fill-rule:evenodd; clip-rule:evenodd"
viewBox="0 0 742.39 361.43"
 xmlns:xlink="http://www.w3.org/1999/xlink"
 xmlns:xodm="http://www.corel.com/coreldraw/odm/2003">
 <defs>
  <style type="text/css">
   <![CDATA[
    .fil0 {fill:black}
    .fil1 {fill:black;fill-rule:nonzero}
   ]]>
  </style>
 </defs>
 <g id="DESIGNED_x0020_BY_x0020_FREEPIK">
  <metadata id="CorelCorpID_0Corel-Layer"/>
  <g id="_2764092724560">
   <path class="fil0" d="M172.75 43.87c-6.16,3.29 -14.3,5.54 -19.69,-0.38 -3.62,-3.96 -5.18,-11.8 -3.46,-16.82 1.35,-3.94 5.2,-6.55 9.2,-7.24 5.39,-0.93 10.44,1.44 14.2,5.21 3.62,3.62 5.36,8.16 3.71,13.16 -0.66,2 -2.03,4.3 -3.56,5.78l-0.17 0.17 -0.22 0.12zm-4.36 -5.56c2.69,-2.78 2.44,-6.37 -0.31,-9.12 -1.99,-1.99 -4.66,-3.4 -7.55,-2.9 -1.76,0.3 -3.65,1.43 -4.25,3.19 -0.62,1.8 -0.25,4.75 0.38,6.5 2.06,5.73 7.21,4.68 11.73,2.32z"/>
   <path class="fil0" d="M183.23 11.24c-0.4,3.45 -1.78,7.4 -5.73,7.93 -2.64,0.35 -6.28,-1.23 -7.85,-3.35 -1.23,-1.67 -1.2,-3.98 -0.35,-5.81 1.15,-2.47 3.54,-3.85 6.14,-4.32 3.8,-0.69 7.19,1.44 7.78,5.31l0.02 0.12 -0.01 0.12zm-4.02 0.29c-0.32,-1.6 -1.63,-2.37 -3.25,-2.07 -1.86,0.33 -4.13,2.36 -2.79,4.18 0.48,0.65 1.62,1.25 2.39,1.46 2.52,0.68 3.38,-1.4 3.65,-3.56z"/>
   <path class="fil0" d="M92.22 137c-24.3,-25.08 -15.99,-76.46 18.45,-88.09 18.75,-6.34 43.56,-4.65 56.92,11.54 12.45,15.1 21.16,35.73 13.45,55.06 -10.9,27.33 -66.76,44.27 -88.82,21.5zm21.78 -80.27c-28.32,9.75 -34.65,53.42 -14.97,74.12 18.15,19.1 64.57,2.52 73,-17.81 6.78,-16.34 -0.85,-34.16 -11.26,-47.03 -10.85,-13.41 -31.48,-14.55 -46.77,-9.28z"/>
   <path class="fil1" d="M42.34 130.69c3.1,0 5.39,-0.84 6.91,-2.52 1.49,-1.7 2.24,-4.18 2.24,-7.47l21.14 0 0.14 0.42c0.17,8.07 -2.61,14.63 -8.37,19.72 -5.76,5.09 -13.11,7.63 -22.05,7.63 -11.22,0 -19.86,-3.48 -25.94,-10.45 -6.09,-6.98 -9.12,-16.01 -9.12,-27.11l0 -1.59c0,-11.06 3.03,-20.09 9.08,-27.09 6.07,-6.98 14.65,-10.48 25.78,-10.48 9.38,0 16.89,2.61 22.49,7.86 5.6,5.25 8.31,12.37 8.14,21.39l-0.14 0.42 -21.14 0c0,-3.52 -0.77,-6.37 -2.31,-8.59 -1.56,-2.22 -3.9,-3.31 -7.04,-3.31 -4.36,0 -7.44,1.8 -9.19,5.39 -1.75,3.6 -2.64,8.4 -2.64,14.4l0 1.59c0,6.18 0.89,11.04 2.64,14.54 1.75,3.5 4.88,5.25 9.4,5.25zm158.49 16.38l0 -57.96 -10.66 0 0 -15.96 10.66 0 0 -7.68c0,-8.52 2.57,-15.07 7.65,-19.65 5.11,-4.55 12.34,-6.84 21.67,-6.84 1.73,0 3.5,0.12 5.34,0.37 1.82,0.25 3.85,0.61 6.07,1.05l-1.7 17.03c-1.24,-0.23 -2.33,-0.4 -3.31,-0.51 -0.98,-0.12 -2.17,-0.16 -3.59,-0.16 -2.87,0 -5.09,0.75 -6.63,2.26 -1.54,1.52 -2.33,3.66 -2.33,6.44l0 7.68 14.37 0 0 15.96 -14.37 0 0 57.96 -23.17 0zm45.75 0l0 -57.96 -10.66 0 0 -15.96 10.66 0 0 -7.68c0,-8.52 2.57,-15.07 7.65,-19.65 5.11,-4.55 12.34,-6.84 21.67,-6.84 1.73,0 3.5,0.12 5.34,0.37 1.82,0.25 3.85,0.61 6.07,1.05l-1.7 17.03c-1.24,-0.23 -2.33,-0.4 -3.31,-0.51 -0.98,-0.12 -2.17,-0.16 -3.59,-0.16 -2.87,0 -5.09,0.75 -6.63,2.26 -1.54,1.52 -2.33,3.66 -2.33,6.44l0 7.68 14.37 0 0 15.96 -14.37 0 0 57.96 -23.17 0zm74.62 1.4c-10.89,0 -19.6,-3.41 -26.09,-10.24 -6.49,-6.84 -9.75,-15.4 -9.75,-25.69l0 -2.59c0,-11.25 2.96,-20.44 8.87,-27.58 5.9,-7.12 14.35,-10.66 25.32,-10.62 10.03,0 17.9,3.01 23.59,9.01 5.69,5.99 8.54,14.14 8.54,24.4l0 12.09 -42.23 0 -0.14 0.42c0.49,3.78 2.05,6.9 4.64,9.36 2.59,2.45 6.07,3.66 10.38,3.66 4.39,0 7.89,-0.35 10.5,-1.03 2.61,-0.68 5.93,-1.87 9.94,-3.55l5.48 14.07c-3.24,2.38 -7.42,4.34 -12.55,5.93 -5.13,1.56 -10.61,2.35 -16.49,2.35zm-1.66 -58.93c-3.31,0 -5.81,1.17 -7.49,3.52 -1.66,2.36 -2.66,5.51 -3.03,9.42l0.21 0.35 19.88 0 0 -1.77c0,-3.71 -0.77,-6.56 -2.31,-8.54 -1.56,-1.98 -3.97,-2.99 -7.26,-2.99zm70.65 58.93c-10.89,0 -19.6,-3.41 -26.09,-10.24 -6.49,-6.84 -9.75,-15.4 -9.75,-25.69l0 -2.59c0,-11.25 2.96,-20.44 8.87,-27.58 5.9,-7.12 14.35,-10.66 25.32,-10.62 10.03,0 17.9,3.01 23.59,9.01 5.69,5.99 8.54,14.14 8.54,24.4l0 12.09 -42.23 0 -0.14 0.42c0.49,3.78 2.05,6.9 4.64,9.36 2.59,2.45 6.07,3.66 10.38,3.66 4.39,0 7.89,-0.35 10.5,-1.03 2.61,-0.68 5.93,-1.87 9.94,-3.55l5.48 14.07c-3.24,2.38 -7.42,4.34 -12.55,5.93 -5.13,1.56 -10.61,2.35 -16.49,2.35zm-1.66 -58.93c-3.31,0 -5.81,1.17 -7.49,3.52 -1.66,2.36 -2.66,5.51 -3.03,9.42l0.21 0.35 19.88 0 0 -1.77c0,-3.71 -0.77,-6.56 -2.31,-8.54 -1.56,-1.98 -3.97,-2.99 -7.26,-2.99z"/>
   <path class="fil1" d="M55.95 259.09c5.67,0 10.16,-1.68 13.51,-5.06 3.35,-3.39 5.03,-7.92 5.03,-13.55l29.65 0 0.24 0.69c0.3,12.18 -4.23,22.38 -13.63,30.6 -9.36,8.23 -20.93,12.29 -34.79,12.33 -17.82,-0.04 -31.64,-5.71 -41.38,-17.12 -9.71,-11.42 -14.58,-26 -14.58,-43.78l0 -3.34c0,-17.7 4.83,-32.28 14.54,-43.78 9.7,-11.5 23.44,-17.25 41.22,-17.25 14.7,0 26.57,4.26 35.56,12.72 8.98,8.49 13.36,19.64 13.06,33.46l-0.24 0.69 -29.65 0c0,-6.25 -1.67,-11.42 -4.99,-15.57 -3.31,-4.11 -7.87,-6.17 -13.74,-6.17 -8.41,0 -14.38,3.35 -17.92,10.09 -3.5,6.73 -5.3,15.34 -5.3,25.81l0 3.34c0,10.7 1.79,19.38 5.3,26 3.54,6.58 9.59,9.9 18.12,9.9zm122.6 -70.04l-11.92 -0.3c-4.83,0 -8.83,0.99 -11.95,3.01 -3.12,1.98 -5.49,4.84 -7.12,8.45l0 81.53 -32.47 0 0 -120.66 30.23 0 1.44 17.85c2.82,-6.32 6.51,-11.26 11,-14.76 4.49,-3.54 9.66,-5.34 15.53,-5.34 1.64,0 3.17,0.16 4.54,0.42 1.37,0.26 2.78,0.57 4.19,0.95l-3.47 28.85zm58.89 95.05c-17.96,-0.04 -32.05,-5.55 -42.14,-16.6 -10.13,-11.04 -15.19,-25.23 -15.19,-42.63l0 -4.46c0,-18.08 4.91,-32.88 14.74,-44.38 9.82,-11.53 23.29,-17.28 40.49,-17.21 16.19,0 28.63,4.99 37.27,14.92 8.68,9.9 13.02,23.26 13.02,40.08l0 16.83 -71.94 0 -0.35 0.68c0.53,8.26 3.04,14.92 7.54,20.06 4.49,5.14 11.19,7.69 20.02,7.69 7.27,0 13.48,-0.72 18.58,-2.21 5.1,-1.48 10.35,-3.77 15.75,-6.82l8.84 20.06c-4.84,3.96 -11.38,7.27 -19.64,9.94 -8.27,2.66 -17.25,3.99 -26.99,4.03zm-2.1 -100.15c-6.55,0 -11.61,2.25 -15.1,6.73 -3.54,4.5 -5.67,10.47 -6.44,17.89l0.23 0.57 39.7 0 0 -2.48c0,-7.04 -1.44,-12.6 -4.34,-16.67 -2.93,-4.03 -7.62,-6.05 -14.05,-6.05zm132.17 97.79c-1.17,-2.74 -2.21,-5.63 -3.04,-8.72 -0.87,-3.04 -1.48,-6.17 -1.86,-9.36 -3.36,5.9 -7.77,10.77 -13.25,14.62 -5.51,3.89 -12.06,5.78 -19.64,5.82 -12.63,-0.04 -22.38,-3.27 -29.19,-9.78 -6.86,-6.51 -10.28,-15.38 -10.28,-26.61 0,-11.8 4.56,-20.97 13.67,-27.48 9.09,-6.51 22.38,-9.74 39.85,-9.74l18.31 0 0 -9.6c0,-5.78 -1.52,-10.31 -4.56,-13.51 -3.05,-3.17 -7.62,-4.76 -13.63,-4.76 -5.26,0 -9.33,1.26 -12.22,3.85 -2.85,2.55 -4.26,6.05 -4.26,10.5l-31.36 0 -0.2 -0.65c-0.53,-10.2 3.93,-18.99 13.33,-26.38 9.4,-7.38 21.66,-11.12 36.85,-11.12 14.5,0 26.23,3.66 35.17,10.97 8.95,7.27 13.44,17.7 13.44,31.32l0 49.83c0,5.67 0.41,10.96 1.3,15.95 0.84,4.98 2.21,9.93 4.07,14.84l-32.47 0zm-29.77 -21.73c5.67,0 10.7,-1.41 15.19,-4.26 4.45,-2.82 7.51,-6.09 9.14,-9.78l0 -17.1 -18.31 0c-6.89,0 -12.14,1.71 -15.65,5.14 -3.54,3.43 -5.33,7.62 -5.33,12.6 0,4.1 1.32,7.35 3.96,9.74 2.67,2.43 6.32,3.65 11,3.65zm112.14 -99.54l0 18.87 20.4 0 0 22.87 -20.4 0 0 43.18c0,4.64 0.96,8.07 2.93,10.05 1.94,1.96 4.56,3.01 7.77,3.01 1.71,0 3.19,-0.11 4.45,-0.31 1.26,-0.19 2.7,-0.49 4.34,-0.95l2.7 23.57c-3.28,1.1 -6.47,1.93 -9.55,2.51 -3.09,0.54 -6.44,0.8 -10.09,0.84 -11.23,-0.04 -19.9,-3.15 -25.92,-9.29 -6.02,-6.14 -9.1,-15.96 -9.1,-29.31l0 -43.29 -17.62 0 0 -22.87 17.62 0 0 -18.87 32.47 0zm66.5 121.27l-32.57 0 0 -91.53 32.57 0 0 91.53zm0 -97.12l-32.57 0 0 -24.4 32.57 0 0 24.4zm62.16 52.17l2.1 11.15 0.68 0 2.21 -11.15 19.88 -75.71 34.03 0 -41.08 120.66 -31.1 0 -41.04 -120.66 33.99 0 20.32 75.71zm115.65 47.31c-17.96,-0.04 -32.05,-5.55 -42.14,-16.6 -10.13,-11.04 -15.19,-25.23 -15.19,-42.63l0 -4.46c0,-18.08 4.91,-32.88 14.74,-44.38 9.82,-11.53 23.29,-17.28 40.49,-17.21 16.19,0 28.63,4.99 37.27,14.92 8.68,9.9 13.02,23.26 13.02,40.08l0 16.83 -71.94 0 -0.35 0.68c0.53,8.26 3.04,14.92 7.54,20.06 4.49,5.14 11.19,7.69 20.02,7.69 7.27,0 13.48,-0.72 18.58,-2.21 5.1,-1.48 10.35,-3.77 15.75,-6.82l8.84 20.06c-4.84,3.96 -11.39,7.27 -19.64,9.94 -8.27,2.66 -17.25,3.99 -26.99,4.03zm-2.1 -100.15c-6.55,0 -11.61,2.25 -15.1,6.73 -3.54,4.5 -5.67,10.47 -6.44,17.89l0.23 0.57 39.7 0 0 -2.48c0,-7.04 -1.44,-12.6 -4.34,-16.67 -2.93,-4.03 -7.62,-6.05 -14.05,-6.05z"/>
   <path class="fil0" d="M21.9 344.63l0 -38.45c0,-0.88 -0.21,-1.66 -0.88,-2.26 -0.65,-0.57 -1.38,-0.85 -2.25,-0.85 -0.81,0 -1.54,0.19 -2.17,0.78 -0.7,0.62 -0.96,1.4 -0.96,2.33l0 38.45c0,0.91 0.22,1.71 0.99,2.37 0.6,0.56 1.34,0.74 2.14,0.74 0.87,0 1.61,-0.27 2.27,-0.83 0.68,-0.58 0.87,-1.41 0.87,-2.28zm41.54 -9.66l0 -3.25c0,-4.9 -0.99,-9.79 -3.91,-13.82 -3.03,-4.18 -7.26,-5.93 -12.34,-5.93 -4.96,0 -9.67,1.26 -13.15,4.98 -3.5,3.73 -4.7,8.54 -4.7,13.55 0,4.91 1.32,9.4 4.82,12.92 3.48,3.51 7.92,4.85 12.8,4.85 0.94,0 1.99,-0.16 2.69,-0.86 0.59,-0.58 0.87,-1.25 0.87,-2.08 0,-0.91 -0.31,-1.65 -0.94,-2.31 -0.69,-0.73 -1.64,-0.94 -2.62,-0.94 -4.05,0 -7.75,-1.28 -9.86,-4.92l-1.28 -2.2 27.62 0zm-6.41 -6.19l-21.56 0 0.31 -1.73c1.1,-6.15 5.34,-8.88 11.41,-8.88 5.58,0 8.47,3.67 9.5,8.86l0.35 1.75zm30.43 -15.89l-7.95 0 0 -5.12c0,-0.87 -0.21,-1.66 -0.87,-2.26 -0.65,-0.59 -1.4,-0.83 -2.27,-0.83 -0.87,0 -1.59,0.27 -2.25,0.84 -0.67,0.59 -0.88,1.38 -0.88,2.25l0 4.48 -0.71 0.43c-0.85,0.52 -3.32,2.12 -3.32,3.31 0,0.8 0.22,1.49 0.73,2.11 0.5,0.61 1.18,0.85 1.96,0.91l1.34 0.11 0 17.85c0,7.13 2.75,11.31 10.2,11.31 2.36,0 7.09,-0.15 7.09,-3.47 0,-0.96 -0.41,-1.69 -1.12,-2.33 -0.72,-0.63 -1.47,-0.93 -2.39,-0.8 -1.14,0.24 -2.33,0.41 -3.51,0.41 -1.32,0 -2.88,-0.25 -3.67,-1.65 -0.36,-0.84 -0.34,-2.55 -0.34,-3.47l0 -17.89 7.95 0c0.87,0 1.65,-0.21 2.24,-0.87 0.57,-0.64 0.83,-1.37 0.83,-2.23 0,-0.86 -0.24,-1.6 -0.82,-2.24 -0.59,-0.66 -1.38,-0.86 -2.25,-0.86zm38.84 23.71c0,-3.63 -1.43,-6.18 -4.81,-7.62 -2.66,-1.14 -7.44,-1.98 -10.29,-2.58 -1.93,-0.41 -7.63,-1.39 -7.63,-4.1 0,-2.64 2.12,-3.9 4.54,-4.35 1.49,-0.2 3.33,-0.16 4.84,-0.16 2.39,0 4.82,0.35 7,1.35 0.45,0.21 0.94,0.32 1.44,0.32 0.84,0 1.47,-0.35 2.01,-0.98 0.59,-0.68 0.94,-1.44 0.94,-2.35 0,-1.36 -0.65,-2.15 -1.87,-2.69 -3,-1.33 -6.26,-1.85 -9.52,-1.85 -3.8,0 -7.53,0.74 -10.79,2.74 -3.26,2.01 -5.01,4.78 -5.01,8.64 0,3.62 1.95,5.87 5.17,7.34 2.67,1.21 7.49,1.98 10.39,2.47 2.01,0.34 7.32,1.14 7.32,3.96 0,2.54 -2.25,3.81 -4.41,4.45 -1.78,0.52 -3.66,0.74 -5.52,0.74 -2.61,0 -5.6,-0.9 -8.16,-1.81 -0.34,-0.15 -0.71,-0.25 -1.08,-0.25 -0.86,0 -1.5,0.32 -2.05,0.97 -0.58,0.69 -0.9,1.44 -0.9,2.35 0,1.47 0.69,2.25 2.08,2.73 3.11,1.16 6.72,2.19 10.07,2.19 3.78,0 7.96,-0.52 11.27,-2.46 3.47,-2.03 4.98,-5.09 4.98,-9.08zm51.86 -19.13c-2.83,-3.37 -6.37,-5.03 -10.77,-5.03 -2,0 -3.9,0.48 -5.3,1.98l-2.53 2.7 0 -9.56c0,-0.87 -0.2,-1.66 -0.86,-2.26 -0.65,-0.59 -1.39,-0.84 -2.27,-0.84 -0.87,0 -1.6,0.27 -2.24,0.85 -0.68,0.6 -0.89,1.38 -0.89,2.26l0 37.08c0,0.88 0.21,1.67 0.88,2.27 0.64,0.57 1.36,0.84 2.21,0.84 1.04,0 1.84,-0.34 2.45,-1.21l0.76 -1.08 1.16 0.64c1.93,1.08 3.99,1.64 6.2,1.64 4.77,0 8.9,-1.46 12.04,-5.11 2.84,-3.31 3.99,-7.27 3.99,-11.6 0,-5.11 -1.52,-9.66 -4.82,-13.58zm-4.8 3.97c2.37,2.81 3.35,6.2 3.35,9.84 0,2.53 -0.58,5 -2.21,7.01 -1.9,2.35 -4.57,3.28 -7.54,3.28 -1.48,0 -2.95,-0.8 -4.1,-1.61 -1.99,-1.26 -3.31,-3.06 -3.31,-5.49l0 -9.43c0,-4.38 3.03,-6.18 7.11,-6.18 2.49,0 5.03,0.59 6.7,2.58zm36.56 -9.19c-0.81,-0.17 -1.65,-0.27 -2.49,-0.27 -1.79,0 -3.5,0.4 -5.13,1.16 -1.4,0.65 -2.74,1.55 -3.66,2.81l-2.01 2.73 -0.62 -3.33c-0.33,-1.77 -1.25,-2.46 -3.04,-2.46 -0.86,0 -1.58,0.28 -2.22,0.85 -0.66,0.59 -0.87,1.39 -0.87,2.26l0 28.64c0,0.87 0.18,1.7 0.87,2.28 0.66,0.56 1.4,0.83 2.27,0.83 0.87,0 1.61,-0.26 2.26,-0.82 0.69,-0.59 0.87,-1.42 0.87,-2.3l0 -16.27c0,-2.91 1.95,-5.25 4.1,-7 2.17,-1.76 4.79,-3.19 7.66,-3.19 0.45,0 0.94,0.09 1.38,0.18 0.21,0.05 0.53,0.12 0.75,0.12 0.72,0 1.35,-0.17 1.82,-0.74 0.51,-0.62 0.72,-1.34 0.72,-2.14 0,-1.91 -0.87,-2.89 -2.66,-3.36zm41.69 22.73l0 -3.25c0,-4.9 -0.99,-9.79 -3.91,-13.82 -3.03,-4.18 -7.26,-5.93 -12.34,-5.93 -4.96,0 -9.67,1.26 -13.15,4.98 -3.5,3.73 -4.7,8.54 -4.7,13.55 0,4.91 1.32,9.4 4.82,12.92 3.48,3.51 7.92,4.85 12.8,4.85 0.94,0 1.99,-0.16 2.69,-0.86 0.59,-0.58 0.87,-1.25 0.87,-2.08 0,-0.91 -0.31,-1.65 -0.94,-2.31 -0.69,-0.73 -1.64,-0.94 -2.62,-0.94 -4.05,0 -7.75,-1.28 -9.86,-4.92l-1.28 -2.2 27.62 0zm-6.41 -6.19l-21.56 0 0.31 -1.73c1.1,-6.15 5.34,-8.88 11.41,-8.88 5.58,0 8.47,3.67 9.5,8.86l0.35 1.75zm69.08 -11.74c0.14,-0.41 0.23,-0.85 0.23,-1.28 0,-0.85 -0.29,-1.5 -0.94,-2.05 -0.67,-0.58 -1.42,-0.9 -2.31,-0.9 -1.52,0 -2.32,0.71 -2.81,2.15l-10.23 28.51 -9.49 -27.35c-0.51,-1.54 -1.39,-3.31 -3.25,-3.31 -1.77,0 -2.64,1.47 -3.18,2.99l-9.92 27.74 -9.83 -28.56c-0.49,-1.38 -1.28,-2.16 -2.78,-2.16 -0.88,0 -1.63,0.31 -2.29,0.89 -0.66,0.58 -0.94,1.27 -0.94,2.13 0,0.41 0.07,0.8 0.16,1.16l7.53 23.18c0.66,2.05 1.7,4.03 3.34,5.47 1.25,1.09 2.67,1.8 4.34,1.8 4.34,0 6.63,-3.66 8.01,-7.3l5.37 -14.7 4.76 14.74c1.2,3.73 3.34,7.26 7.67,7.26 4.33,0 6.63,-3.67 7.99,-7.33l8.57 -23.07zm45.4 -4.16l-7.96 0 0 -5.12c0,-0.87 -0.21,-1.66 -0.87,-2.26 -0.65,-0.59 -1.4,-0.83 -2.27,-0.83 -0.87,0 -1.6,0.27 -2.25,0.84 -0.67,0.59 -0.88,1.38 -0.88,2.25l0 4.48 -0.71 0.43c-0.85,0.52 -3.32,2.12 -3.32,3.31 0,0.8 0.22,1.49 0.73,2.11 0.5,0.61 1.18,0.85 1.96,0.91l1.35 0.11 0 17.85c0,7.13 2.75,11.31 10.2,11.31 2.36,0 7.09,-0.15 7.09,-3.47 0,-0.96 -0.4,-1.69 -1.12,-2.33 -0.72,-0.63 -1.47,-0.93 -2.39,-0.8 -1.14,0.24 -2.33,0.41 -3.51,0.41 -1.32,0 -2.88,-0.25 -3.67,-1.65 -0.36,-0.84 -0.34,-2.55 -0.34,-3.47l0 -17.89 7.96 0c0.87,0 1.64,-0.21 2.23,-0.87 0.57,-0.64 0.83,-1.37 0.83,-2.23 0,-0.86 -0.24,-1.6 -0.82,-2.24 -0.59,-0.66 -1.38,-0.86 -2.25,-0.86zm37.69 13.09c0,-3.74 -1.24,-6.88 -4.11,-9.31 -2.65,-2.25 -5.74,-3.24 -9.2,-3.24 -2.24,0 -4.41,0.48 -6.48,1.34l-2.03 0.85 0 -9.35c0,-0.86 -0.18,-1.7 -0.85,-2.28 -0.66,-0.58 -1.42,-0.82 -2.29,-0.82 -0.87,0 -1.6,0.26 -2.26,0.83 -0.68,0.58 -0.87,1.42 -0.87,2.28l0 38.38c0,0.87 0.18,1.7 0.87,2.28 0.66,0.57 1.4,0.83 2.26,0.83 0.87,0 1.63,-0.24 2.29,-0.82 0.67,-0.58 0.85,-1.42 0.85,-2.28l0 -18.48c0,-2.13 1.08,-3.79 2.8,-4.93 1.62,-1.13 3.46,-1.63 5.43,-1.63 1.82,0 3.57,0.44 5.05,1.54 1.59,1.18 2.28,2.91 2.28,4.87l0 18.63c0,0.86 0.17,1.69 0.84,2.28 0.66,0.58 1.42,0.82 2.29,0.82 0.87,0 1.61,-0.26 2.27,-0.83 0.68,-0.58 0.87,-1.42 0.87,-2.28l0 -18.67zm41.69 4.31c0,-4.94 -1.49,-9.28 -4.92,-12.87 -3.44,-3.6 -7.75,-5.13 -12.7,-5.13 -4.92,0 -9.17,1.58 -12.59,5.17 -3.42,3.59 -4.96,7.9 -4.96,12.83 0,4.82 1.18,9.42 4.54,12.99 3.46,3.67 8.04,5.01 13,5.01 4.92,0 9.36,-1.38 12.82,-4.99 3.44,-3.6 4.8,-8.08 4.8,-13.01zm-6.27 0c0,3.14 -0.74,6.24 -2.91,8.6 -2.21,2.39 -5.28,3.21 -8.45,3.21 -7.61,0 -11.28,-4.37 -11.28,-11.81 0,-3.2 0.93,-6.13 3.15,-8.46 2.19,-2.29 4.97,-3.34 8.12,-3.34 3.17,0 6.02,0.99 8.24,3.3 2.23,2.34 3.11,5.31 3.11,8.5zm45.07 17.46l0 -32.08c0,-0.86 -0.18,-1.68 -0.85,-2.27 -0.65,-0.58 -1.42,-0.82 -2.28,-0.82 -0.87,0 -1.61,0.27 -2.28,0.83 -0.67,0.57 -0.86,1.38 -0.86,2.24l0 25.9 -1.47 0c-2.26,0 -4.52,0 -6.78,0 -1.48,0 -2.97,0 -4.45,0 -4.16,0 -6.59,-2.27 -6.59,-6.48l0 -19.42c0,-0.87 -0.19,-1.67 -0.87,-2.25 -0.66,-0.57 -1.4,-0.83 -2.27,-0.83 -0.87,0 -1.61,0.27 -2.27,0.83 -0.68,0.58 -0.87,1.38 -0.87,2.25l0 19.43c0,3.54 0.98,6.71 3.55,9.2 2.56,2.48 5.75,3.45 9.28,3.45l18.99 0zm40.33 -7.73l0 -20.91c0,-1.73 -1.12,-3.07 -2.41,-4.1 -1.56,-1.24 -3.32,-2.04 -5.33,-2.04l-5.75 0c-4.52,0 -8.42,1.46 -11.56,4.75 -3.13,3.28 -4.56,7.2 -4.56,11.73 0,11.09 4.22,18.08 15.95,18.08 1.35,0 2.82,-0.04 4.15,-0.28l2.79 -0.5 -1.2 2.56c-1.47,3.15 -3.84,5.37 -7.31,6 -1.78,0.32 -2.59,1.14 -2.59,2.97 0,0.87 0.27,1.62 0.84,2.29 0.55,0.65 1.26,0.88 2.11,0.88 5.12,0 8.61,-2.89 11.13,-7.18 2.57,-4.38 3.76,-9.16 3.76,-14.24zm-6.62 -1.4c-1.89,1.91 -4.34,2.71 -7.01,2.71 -2.98,0 -6.17,-0.68 -7.95,-3.3 -1.54,-2.26 -1.76,-5.93 -1.76,-8.59 0,-2.79 0.84,-5.34 2.79,-7.37 1.92,-2 4.38,-2.92 7.14,-2.92 1.44,0 2.84,0.26 4.18,0.79 1.57,0.62 3.05,1.72 3.05,3.56l0 14.67 -0.42 0.43zm42.45 -12.64c0,-3.74 -1.24,-6.88 -4.11,-9.31 -2.65,-2.25 -5.74,-3.24 -9.2,-3.24 -2.24,0 -4.41,0.48 -6.48,1.34l-2.03 0.85 0 -9.35c0,-0.86 -0.18,-1.7 -0.85,-2.28 -0.66,-0.58 -1.42,-0.82 -2.29,-0.82 -0.87,0 -1.6,0.26 -2.27,0.83 -0.68,0.58 -0.87,1.42 -0.87,2.28l0 38.38c0,0.87 0.19,1.7 0.87,2.28 0.66,0.57 1.4,0.83 2.27,0.83 0.87,0 1.63,-0.24 2.29,-0.82 0.67,-0.58 0.85,-1.42 0.85,-2.28l0 -18.48c0,-2.13 1.08,-3.79 2.8,-4.93 1.62,-1.13 3.46,-1.63 5.43,-1.63 1.82,0 3.57,0.44 5.05,1.54 1.59,1.18 2.27,2.91 2.27,4.87l0 18.63c0,0.86 0.17,1.69 0.84,2.28 0.66,0.58 1.42,0.82 2.29,0.82 0.87,0 1.61,-0.26 2.27,-0.83 0.68,-0.58 0.87,-1.42 0.87,-2.28l0 -18.67zm24.71 -13.09l-7.96 0 0 -5.12c0,-0.87 -0.21,-1.66 -0.87,-2.26 -0.65,-0.59 -1.4,-0.83 -2.27,-0.83 -0.87,0 -1.6,0.27 -2.25,0.84 -0.67,0.59 -0.88,1.38 -0.88,2.25l0 4.48 -0.71 0.43c-0.85,0.52 -3.32,2.12 -3.32,3.31 0,0.8 0.22,1.49 0.73,2.11 0.5,0.61 1.18,0.85 1.96,0.91l1.35 0.11 0 17.85c0,7.13 2.75,11.31 10.2,11.31 2.36,0 7.09,-0.15 7.09,-3.47 0,-0.96 -0.4,-1.69 -1.12,-2.33 -0.72,-0.63 -1.47,-0.93 -2.39,-0.8 -1.14,0.24 -2.33,0.41 -3.51,0.41 -1.32,0 -2.88,-0.25 -3.67,-1.65 -0.36,-0.84 -0.34,-2.55 -0.34,-3.47l0 -17.89 7.96 0c0.87,0 1.64,-0.21 2.23,-0.87 0.57,-0.64 0.83,-1.37 0.83,-2.23 0,-0.86 -0.24,-1.6 -0.82,-2.24 -0.59,-0.66 -1.38,-0.86 -2.25,-0.86zm38.83 23.71c0,-3.63 -1.43,-6.18 -4.81,-7.62 -2.66,-1.14 -7.44,-1.98 -10.3,-2.58 -1.93,-0.41 -7.63,-1.39 -7.63,-4.1 0,-2.64 2.11,-3.9 4.54,-4.35 1.49,-0.2 3.33,-0.16 4.84,-0.16 2.39,0 4.82,0.35 7,1.35 0.46,0.21 0.94,0.32 1.44,0.32 0.84,0 1.47,-0.35 2.01,-0.98 0.59,-0.68 0.94,-1.44 0.94,-2.35 0,-1.36 -0.65,-2.15 -1.86,-2.69 -3,-1.33 -6.26,-1.85 -9.52,-1.85 -3.8,0 -7.53,0.74 -10.79,2.74 -3.26,2.01 -5,4.78 -5,8.64 0,3.62 1.95,5.87 5.17,7.34 2.67,1.21 7.49,1.98 10.39,2.47 2.01,0.34 7.33,1.14 7.33,3.96 0,2.54 -2.25,3.81 -4.41,4.45 -1.78,0.52 -3.66,0.74 -5.52,0.74 -2.61,0 -5.6,-0.9 -8.16,-1.81 -0.34,-0.15 -0.7,-0.25 -1.08,-0.25 -0.86,0 -1.5,0.32 -2.05,0.97 -0.58,0.69 -0.9,1.44 -0.9,2.35 0,1.47 0.69,2.25 2.08,2.73 3.11,1.16 6.72,2.19 10.06,2.19 3.78,0 7.96,-0.52 11.28,-2.46 3.47,-2.03 4.97,-5.09 4.97,-9.08z"/>
   <path class="fil1" d="M456.81 66.67c-4.08,-5.97 -7.08,-11.41 -9,-16.29 -1.89,-4.9 -2.75,-9.8 -2.58,-14.8 0.4,-11.76 4.12,-20.75 11.19,-26.9 7.07,-6.16 16.59,-9.05 28.57,-8.64 10.27,0.35 18.53,3.81 24.74,10.39 6.2,6.6 9.19,14.43 8.88,23.47 -0.23,6.72 -1.82,12.5 -4.73,17.31 -2.92,4.84 -7.12,9.27 -12.65,13.29l-10.11 6.62 25.16 31.46c2.45,-3.73 4.41,-7.84 5.85,-12.33 1.45,-4.46 2.24,-9.24 2.41,-14.28l22.62 0.77c-0.31,9.18 -1.76,17.54 -4.3,25.12 -2.55,7.54 -6.35,14.18 -11.42,19.9l24.07 28.79 -0.22 0.49 -33.98 0.27 -9.98 -15.59c-5.62,3.39 -11.37,5.85 -17.23,7.44 -5.88,1.59 -12.18,2.24 -18.83,2.05 -14.1,-0.52 -25.17,-4.57 -33.26,-12.27 -8.09,-7.7 -11.94,-17.48 -11.54,-29.37 0.27,-7.85 2.55,-14.43 6.84,-19.83 4.3,-5.39 10.79,-11.1 19.48,-17.07zm65.92 81.83l27.87 0.01 -22.88 -26.85 1.59 -1.8c4.9,-5.54 8.49,-11.9 10.85,-18.92 2.33,-6.92 3.57,-14.17 4.02,-21.45l-16.94 -0.57c-0.33,4.14 -1.1,8.24 -2.38,12.2 -1.48,4.59 -3.54,8.98 -6.19,13.02l-2.16 3.29 -29.57 -36.99 12.65 -8.28c4.68,-3.4 8.86,-7.47 11.86,-12.44 2.92,-4.82 4.13,-10.34 4.32,-15.93 0.29,-8.24 -2.46,-15.42 -8.11,-21.42 -6.1,-6.47 -13.97,-9.19 -22.76,-9.49 -9.56,-0.33 -19.21,1.5 -26.6,7.94 -7.3,6.36 -9.89,15.42 -10.21,24.84 -0.16,4.73 0.67,9.27 2.38,13.67 2.15,5.5 5.38,10.85 8.7,15.71l1.61 2.35 -2.35 1.61c-6.65,4.58 -13.81,10.16 -18.86,16.5 -4.2,5.27 -6,11.46 -6.22,18.14 -0.36,10.58 2.94,19.87 10.65,27.2 8.55,8.14 19.84,11.09 31.39,11.49 6.05,0.21 12.13,-0.36 17.99,-1.94 5.81,-1.58 11.34,-4.02 16.5,-7.13l2.13 -1.29 10.72 16.51zm-45.34 -22.14c-6.2,-0.21 -11.66,-2.34 -15.82,-7 -4.1,-4.59 -5.77,-10.29 -5.57,-16.38 0.12,-3.53 1.15,-6.88 2.77,-10 2.04,-3.9 5.49,-7.18 8.98,-9.8l3.09 -2.32 31.45 39.04 -3.13 1.59c-3.4,1.73 -6.99,3.03 -10.72,3.85 -3.63,0.8 -7.34,1.13 -11.05,1.01zm-9.7 -90.31c0.15,-4.46 1.46,-8.6 4.31,-12.07 2.94,-3.57 6.99,-5.16 11.56,-5 4.3,0.15 8.13,1.7 10.85,5.12 2.46,3.07 3.66,6.72 3.53,10.65 -0.11,3.29 -0.91,6.42 -2.53,9.29 -1.92,3.41 -5.31,6.02 -8.62,7.99l-9.74 5.8 -1.53 -2.08c-2.3,-3.11 -4.47,-6.52 -5.95,-10.11 -1.26,-3.04 -2,-6.29 -1.89,-9.6zm9.8 87.45c3.44,0.12 6.87,-0.2 10.34,-0.94 3.44,-0.78 6.8,-1.96 10.03,-3.61l-27.52 -34.15 -0.88 0.66c-3.91,2.95 -6.64,5.91 -8.16,8.84 -1.53,2.93 -2.35,5.85 -2.46,8.77 -0.19,5.73 1.43,10.53 4.85,14.38 3.45,3.83 8.03,5.84 13.79,6.04zm-6.94 -87.36c-0.09,2.71 0.48,5.52 1.67,8.41 1.2,2.89 3.07,6.07 5.61,9.5l7.51 -4.48c3.72,-2.2 6.22,-4.53 7.59,-6.94 1.34,-2.41 2.07,-5.07 2.16,-7.98 0.12,-3.31 -0.88,-6.23 -2.91,-8.78 -2.04,-2.56 -4.94,-3.91 -8.72,-4.04 -3.87,-0.13 -6.97,1.19 -9.25,3.96 -2.28,2.77 -3.53,6.21 -3.67,10.35z"/>
  </g>
 </g>
</svg>
