<?xml version="1.0" encoding="UTF-8"?>
<!DOCTYPE svg PUBLIC "-//W3C//DTD SVG 1.1//EN" "http://www.w3.org/Graphics/SVG/1.1/DTD/svg11.dtd">
<!-- Creator: CorelDRAW 2020 (64-Bit) -->
<svg xmlns="http://www.w3.org/2000/svg" xml:space="preserve" width="65.0238mm" height="65.024mm" version="1.1" style="shape-rendering:geometricPrecision; text-rendering:geometricPrecision; image-rendering:optimizeQuality; fill-rule:evenodd; clip-rule:evenodd"
viewBox="0 0 2857.22 2857.23"
 xmlns:xlink="http://www.w3.org/1999/xlink"
 xmlns:xodm="http://www.corel.com/coreldraw/odm/2003"
 xmlns:svgjs="http://svgjs.com/svgjs">
 <defs>
  <style type="text/css">
   <![CDATA[
    .fil0 {fill:#FEFEFE}
    .fil1 {fill:#FEFEFE;fill-rule:nonzero}
   ]]>
  </style>
 </defs>
 <g id="Layer_x0020_1">
  <metadata id="CorelCorpID_0Corel-Layer"/>
  <path class="fil0" d="M1428.61 0c-789,0 -1428.61,639.62 -1428.61,1428.62 0,789 639.61,1428.62 1428.61,1428.62 789,0 1428.61,-639.62 1428.61,-1428.62 0,-789 -639.61,-1428.62 -1428.61,-1428.62zm0 61.94c-754.79,0 -1366.67,611.89 -1366.67,1366.68 0,754.79 611.88,1366.68 1366.67,1366.68 754.79,0 1366.67,-611.89 1366.67,-1366.68 0,-754.79 -611.88,-1366.68 -1366.67,-1366.68z"/>
  <g id="add1.svg">
   <g>
    <g>
     <g>
      <path class="fil1" d="M2498.88 1392.94l-1034.59 0 0 -1034.59c0,-19.7 -15.97,-35.68 -35.68,-35.68 -19.7,0 -35.68,15.97 -35.68,35.68l0 1034.59 -1034.59 -0c-19.7,0 -35.68,15.97 -35.68,35.68 0,19.7 15.97,35.68 35.68,35.68l1034.59 0 0 1034.59c0,19.7 15.97,35.68 35.68,35.68 19.7,0 35.68,-15.97 35.68,-35.68l0 -1034.59 1034.59 0c19.7,0 35.68,-15.97 35.68,-35.68 0,-19.7 -15.97,-35.68 -35.68,-35.68z" data-original="#000000"/>
     </g>
    </g>
    <g>
    </g>
    <g>
    </g>
    <g>
    </g>
    <g>
    </g>
    <g>
    </g>
    <g>
    </g>
    <g>
    </g>
    <g>
    </g>
    <g>
    </g>
    <g>
    </g>
    <g>
    </g>
    <g>
    </g>
    <g>
    </g>
    <g>
    </g>
    <g>
    </g>
   </g>
  </g>
 </g>
</svg>
