<?xml version="1.0" encoding="UTF-8"?>
<!DOCTYPE svg PUBLIC "-//W3C//DTD SVG 1.1//EN" "http://www.w3.org/Graphics/SVG/1.1/DTD/svg11.dtd">
<!-- Creator: CorelDRAW 2020 (64-Bit) -->
<svg xmlns="http://www.w3.org/2000/svg" xml:space="preserve" width="65.024mm" height="65.024mm" version="1.1" style="shape-rendering:geometricPrecision; text-rendering:geometricPrecision; image-rendering:optimizeQuality; fill-rule:evenodd; clip-rule:evenodd"
viewBox="0 0 19705.45 19705.45"
 xmlns:xlink="http://www.w3.org/1999/xlink"
 xmlns:xodm="http://www.corel.com/coreldraw/odm/2003"
 xmlns:svgjs="http://svgjs.com/svgjs">
 <defs>
  <style type="text/css">
   <![CDATA[
    .fil0 {fill:#FEFEFE}
    .fil1 {fill:#FEFEFE;fill-rule:nonzero}
   ]]>
  </style>
 </defs>
 <g id="Layer_x0020_1">
  <metadata id="CorelCorpID_0Corel-Layer"/>
  <path class="fil0" d="M2885.78 2885.78c-3847.72,3847.75 -3847.69,10086.14 0.03,13933.86 3847.72,3847.72 10086.11,3847.75 13933.86,0.03 3847.72,-3847.75 3847.69,-10086.14 -0.03,-13933.86 -3847.72,-3847.72 -10086.11,-3847.75 -13933.86,-0.03zm302.08 302.08c-3680.89,3680.89 -3680.86,9648.84 0.03,13329.7 3680.86,3680.89 9648.81,3680.92 13329.7,0.03 3680.89,-3680.89 3680.86,-9648.84 -0.03,-13329.7 -3680.86,-3680.89 -9648.81,-3680.92 -13329.7,-0.03z"/>
  <g id="add1.svg">
   <g>
    <g>
     <g>
      <path class="fil1" d="M14898.1 4459.37l-5045.4 5045.37 -5045.37 -5045.37c-96.1,-96.1 -251.89,-96.1 -347.96,0 -96.1,96.07 -96.1,251.86 0,347.96l5045.4 5045.4 -5045.4 5045.37c-96.1,96.1 -96.1,251.89 0,347.96 96.07,96.1 251.86,96.1 347.96,0l5045.37 -5045.37 5045.43 5045.4c96.07,96.07 251.86,96.07 347.96,0 96.07,-96.1 96.07,-251.89 0,-347.96l-5045.4 -5045.43 5045.37 -5045.37c96.1,-96.1 96.1,-251.89 0,-347.96 -96.07,-96.1 -251.86,-96.1 -347.96,0z" data-original="#000000"/>
     </g>
    </g>
    <g>
    </g>
    <g>
    </g>
    <g>
    </g>
    <g>
    </g>
    <g>
    </g>
    <g>
    </g>
    <g>
    </g>
    <g>
    </g>
    <g>
    </g>
    <g>
    </g>
    <g>
    </g>
    <g>
    </g>
    <g>
    </g>
    <g>
    </g>
    <g>
    </g>
   </g>
  </g>
 </g>
</svg>
